<svg width="219" height="74" viewBox="0 0 219 74" fill="none" xmlns="http://www.w3.org/2000/svg">
<path d="M8.89641 0H210.104C215.011 0 219 3.98122 219 8.88V65.12C219 70.0188 215.011 74 210.104 74H8.89641C3.98858 74 0 70.0188 0 65.12V8.88C0 3.98122 3.98858 0 8.89641 0Z" fill="black"/>
<path d="M47.9373 35.3128C47.8928 30.0144 52.2817 27.4392 52.4745 27.3208C49.9834 23.7096 46.1283 23.2064 44.779 23.162C41.5466 22.8216 38.4033 25.1008 36.7575 25.1008C35.0819 25.1008 32.5317 23.2064 29.8034 23.2508C26.2894 23.31 22.9828 25.3376 21.1887 28.5048C17.4671 34.9428 20.2398 44.4148 23.8132 49.6244C25.6072 52.1699 27.6831 55.0264 30.4261 54.9228C33.0951 54.8192 34.1033 53.2208 37.3208 53.2208C40.5235 53.2208 41.4577 54.9228 44.2452 54.8636C47.1217 54.8191 48.9158 52.3031 50.6506 49.728C52.7116 46.8125 53.5419 43.9265 53.5715 43.7785C53.4976 43.7488 47.9965 41.6472 47.9373 35.3128Z" fill="white"/>
<path d="M42.674 19.7433C44.1122 17.9525 45.0909 15.5105 44.8239 13.024C42.7481 13.1128 40.1385 14.4596 38.641 16.2208C37.3213 17.7748 36.1351 20.3056 36.4317 22.6884C38.7743 22.866 41.1763 21.5045 42.674 19.7433Z" fill="white"/>
<path d="M86.6663 54.5528H82.9298L80.8836 48.1296H73.7665L71.8241 54.5528H68.1914L75.2344 32.6933H79.5937L86.6663 54.5528ZM80.2757 45.4361L78.4223 39.7381C78.2295 39.1461 77.8588 37.7845 77.325 35.6236H77.2509C77.0285 36.5561 76.6874 37.9324 76.213 39.7381L74.3892 45.4361H80.2757Z" fill="white"/>
<path d="M104.771 46.4867C104.771 49.1655 104.044 51.2819 102.576 52.8359C101.271 54.2271 99.6402 54.9079 97.7127 54.9079C95.622 54.9079 94.1245 54.1679 93.2051 52.6731V60.9463H89.6911V43.9707C89.6911 42.2835 89.6466 40.5667 89.5576 38.7907H92.6417L92.8345 41.2919H92.8939C94.0652 39.4123 95.8445 38.4651 98.2169 38.4651C100.085 38.4651 101.627 39.2051 102.873 40.6703C104.148 42.1503 104.771 44.0743 104.771 46.4867ZM101.197 46.6051C101.197 45.0659 100.856 43.8079 100.159 42.8163C99.4031 41.7803 98.38 41.2623 97.1049 41.2623C96.2448 41.2623 95.459 41.5583 94.7473 42.1208C94.0504 42.698 93.5759 43.438 93.3683 44.3703C93.2645 44.7996 93.2052 45.1548 93.2052 45.4359V48.0703C93.2052 49.2099 93.5611 50.1868 94.2579 50.9711C94.9548 51.7556 95.8741 52.1551 97.001 52.1551C98.3207 52.1551 99.3438 51.6371 100.085 50.6307C100.826 49.6095 101.197 48.2775 101.197 46.6051Z" fill="white"/>
<path d="M122.919 46.4867C122.919 49.1655 122.192 51.2819 120.725 52.8359C119.42 54.2271 117.789 54.9079 115.861 54.9079C113.77 54.9079 112.273 54.1679 111.354 52.6731V60.9463H107.84V43.9707C107.84 42.2835 107.795 40.5667 107.706 38.7907H110.79L110.983 41.2919H111.042C112.214 39.4123 113.993 38.4651 116.365 38.4651C118.234 38.4651 119.776 39.2051 121.021 40.6703C122.296 42.1503 122.919 44.0743 122.919 46.4867ZM119.346 46.6051C119.346 45.0659 119.005 43.8079 118.308 42.8163C117.552 41.7803 116.528 41.2623 115.253 41.2623C114.393 41.2623 113.607 41.5583 112.896 42.1208C112.199 42.698 111.739 43.438 111.517 44.3703C111.413 44.7996 111.354 45.1548 111.354 45.4359V48.0703C111.354 49.2099 111.71 50.1868 112.406 50.9711C113.103 51.7556 114.023 52.1551 115.149 52.1551C116.469 52.1551 117.507 51.6371 118.234 50.6307C118.99 49.6095 119.346 48.2775 119.346 46.6051Z" fill="white"/>
<path d="M143.233 48.4255C143.233 50.2903 142.581 51.8 141.291 52.9691C139.867 54.2419 137.88 54.8783 135.33 54.8783C132.972 54.8783 131.089 54.4195 129.666 53.5167L130.482 50.6012C132.024 51.504 133.714 51.9627 135.552 51.9627C136.872 51.9627 137.91 51.6667 138.637 51.0747C139.378 50.4827 139.749 49.6835 139.749 48.692C139.749 47.804 139.437 47.064 138.844 46.4572C138.236 45.8504 137.228 45.288 135.819 44.77C131.949 43.3344 130.037 41.2475 130.037 38.5095C130.037 36.7187 130.719 35.2535 132.068 34.0991C133.417 32.9595 135.211 32.3823 137.45 32.3823C139.437 32.3823 141.098 32.7227 142.418 33.4183L141.528 36.2599C140.282 35.5939 138.889 35.2534 137.317 35.2534C136.086 35.2534 135.108 35.5642 134.411 36.1562C133.832 36.7038 133.536 37.355 133.536 38.1394C133.536 38.9979 133.877 39.723 134.544 40.2707C135.123 40.7887 136.19 41.3511 137.732 41.9579C139.615 42.7127 140.994 43.6007 141.884 44.6219C142.788 45.6432 143.233 46.916 143.233 48.4255Z" fill="white"/>
<path d="M154.857 41.4251H150.987V49.0767C150.987 51.0154 151.669 51.9922 153.033 51.9922C153.656 51.9922 154.175 51.933 154.59 51.8294L154.694 54.4934C153.997 54.745 153.093 54.8782 151.966 54.8782C150.572 54.8782 149.505 54.449 148.719 53.6054C147.933 52.7619 147.547 51.341 147.547 49.3579V41.4103H145.249V38.7908H147.547V35.9048L150.987 34.8688V38.7908H154.857L154.857 41.4251Z" fill="white"/>
<path d="M172.265 46.546C172.265 48.9732 171.568 50.9565 170.189 52.5105C168.736 54.1089 166.808 54.908 164.406 54.908C162.093 54.908 160.24 54.1385 158.861 52.614C157.482 51.0896 156.8 49.1508 156.8 46.8125C156.8 44.3705 157.512 42.3725 158.92 40.8185C160.344 39.2645 162.256 38.48 164.658 38.48C166.971 38.48 168.84 39.2496 170.248 40.7888C171.597 42.2688 172.265 44.1928 172.265 46.546ZM168.632 46.62C168.632 45.1696 168.321 43.9412 167.698 42.9052C166.957 41.6472 165.904 41.0257 164.54 41.0257C163.131 41.0257 162.049 41.6472 161.322 42.9052C160.685 43.9412 160.388 45.1992 160.388 46.694C160.388 48.1445 160.699 49.3876 161.322 50.4088C162.078 51.6668 163.146 52.2884 164.51 52.2884C165.845 52.2884 166.897 51.6519 167.668 50.3792C168.306 49.3136 168.632 48.0705 168.632 46.62Z" fill="white"/>
<path d="M183.681 41.8691C183.34 41.8099 182.969 41.7803 182.569 41.7803C181.338 41.7803 180.375 42.2391 179.707 43.1715C179.129 43.9855 178.833 45.0363 178.833 46.2795V54.5527H175.319V43.7487C175.319 41.9282 175.289 40.2707 175.215 38.7907H178.269L178.403 41.8099H178.506C178.877 40.7739 179.455 39.9303 180.256 39.3087C181.042 38.7462 181.887 38.4651 182.792 38.4651C183.118 38.4651 183.414 38.4947 183.666 38.5243L183.681 41.8691Z" fill="white"/>
<path d="M199.369 45.9244C199.369 46.5459 199.324 47.0788 199.235 47.5079H188.708C188.752 49.0619 189.256 50.2607 190.235 51.0747C191.125 51.7999 192.266 52.1699 193.675 52.1699C195.232 52.1699 196.655 51.9183 197.93 51.4299L198.479 53.8571C196.981 54.5083 195.217 54.8339 193.186 54.8339C190.739 54.8339 188.812 54.1087 187.418 52.6731C186.024 51.2376 185.327 49.2987 185.327 46.8863C185.327 44.5184 185.98 42.5351 187.284 40.9516C188.648 39.2644 190.487 38.4208 192.8 38.4208C195.069 38.4208 196.804 39.2644 197.96 40.9516C198.894 42.3131 199.369 43.9559 199.369 45.9244ZM196.018 45.0215C196.047 43.9855 195.81 43.0827 195.336 42.3279C194.728 41.3511 193.794 40.8627 192.548 40.8627C191.406 40.8627 190.472 41.3363 189.761 42.2835C189.182 43.0383 188.826 43.9559 188.723 45.0067L196.018 45.0215Z" fill="white"/>
<path d="M78.5853 24.8786H76.7467L75.7384 21.7262H72.2392L71.2754 24.8786H69.4961L72.9509 14.1339H75.0861L78.5853 24.8786ZM75.427 20.3943L74.5226 17.5823C74.4336 17.3011 74.2557 16.6203 73.974 15.5547H73.9443C73.8256 16.0135 73.6774 16.6795 73.4253 17.5823L72.5357 20.3943H75.427Z" fill="white"/>
<path d="M87.2443 17.1235L84.3085 24.8787H82.6329L79.7861 17.1235H81.6396L82.9592 21.2231C83.1816 21.9039 83.3744 22.5551 83.5227 23.1766H83.5672C83.7007 22.6142 83.8934 21.9631 84.1307 21.2231L85.4355 17.1235H87.2443Z" fill="white"/>
<path d="M93.5016 24.8787L93.3681 23.9907H93.3236C92.7898 24.7011 92.0337 25.0563 91.055 25.0563C89.6612 25.0563 88.6826 24.0795 88.6826 22.7771C88.6826 20.8678 90.3432 19.8763 93.2198 19.8763V19.7283C93.2198 18.7071 92.6712 18.2038 91.6036 18.2038C90.8326 18.2038 90.1654 18.3963 89.5723 18.7811L89.2164 17.6563C89.9281 17.2123 90.8326 16.9903 91.8853 16.9903C93.9166 16.9903 94.9397 18.0558 94.9397 20.2018V23.0583C94.9397 23.8427 94.9694 24.4495 95.0584 24.9083L93.5016 24.8787ZM93.2644 21.0159C91.3516 21.0159 90.3879 21.4747 90.3879 22.5847C90.3879 23.3987 90.8772 23.7983 91.574 23.7983C92.4489 23.7983 93.2644 23.1323 93.2644 22.2147V21.0159Z" fill="white"/>
<path d="M98.78 15.8507C98.2017 15.8507 97.7568 15.4068 97.7568 14.8148C97.7568 14.2228 98.2165 13.7935 98.8096 13.7935C99.4027 13.7935 99.8771 14.2228 99.8623 14.8148C99.8624 15.4364 99.4176 15.8507 98.78 15.8507ZM97.9496 17.1235H99.6696V24.864H97.9496V17.1235Z" fill="white"/>
<path d="M102.739 13.5715H104.459V24.8639H102.739V13.5715Z" fill="white"/>
<path d="M111.784 24.8787L111.65 23.9907H111.606C111.072 24.7012 110.316 25.0563 109.337 25.0563C107.943 25.0563 106.965 24.0795 106.965 22.7771C106.965 20.8678 108.625 19.8763 111.502 19.8763V19.7283C111.502 18.7071 110.953 18.2038 109.886 18.2038C109.115 18.2038 108.448 18.3963 107.854 18.7811L107.499 17.6415C108.21 17.1975 109.115 16.9755 110.168 16.9755C112.199 16.9755 113.222 18.0411 113.222 20.1871V23.0435C113.222 23.8279 113.252 24.4347 113.326 24.8935H111.784L111.784 24.8787ZM111.547 21.0159C109.634 21.0159 108.67 21.4747 108.67 22.5847C108.67 23.3987 109.159 23.7983 109.856 23.7983C110.731 23.7983 111.547 23.1323 111.547 22.2147V21.0159Z" fill="white"/>
<path d="M120.221 25.0564C119.123 25.0564 118.308 24.5976 117.774 23.6799H117.745L117.641 24.8787H116.173C116.217 24.2572 116.232 23.5615 116.232 22.7919V13.5715H117.967V18.2631H117.997C118.516 17.4046 119.331 16.9755 120.473 16.9755C122.341 16.9755 123.646 18.5739 123.646 20.8975C123.646 23.2952 122.193 25.0564 120.221 25.0564ZM119.865 18.3224C118.871 18.3224 117.967 19.1808 117.967 20.3796V21.7412C117.967 22.8067 118.782 23.6799 119.835 23.6799C121.125 23.6799 121.896 22.6292 121.896 20.9567C121.896 19.3879 121.095 18.3224 119.865 18.3224Z" fill="white"/>
<path d="M126.196 13.5715H127.916V24.8639H126.196V13.5715Z" fill="white"/>
<path d="M137.301 21.4155H132.126C132.156 22.8807 133.135 23.7095 134.573 23.7095C135.344 23.7095 136.041 23.5763 136.664 23.3395L136.931 24.5383C136.204 24.8638 135.344 25.0118 134.336 25.0118C131.904 25.0118 130.466 23.4874 130.466 21.1046C130.466 18.7366 131.934 16.9458 134.143 16.9458C136.115 16.9458 137.375 18.411 137.375 20.631C137.375 20.9419 137.361 21.2083 137.301 21.4155ZM135.73 20.1871C135.73 18.9883 135.122 18.1447 134.024 18.1447C133.031 18.1447 132.26 19.0031 132.141 20.1871H135.73Z" fill="white"/>
<path d="M147.755 25.0564C145.486 25.0564 144.019 23.3692 144.019 21.0752C144.019 18.6776 145.516 16.9756 147.888 16.9756C150.127 16.9756 151.625 18.5888 151.625 20.9421C151.625 23.3544 150.083 25.0564 147.755 25.0564ZM147.829 18.2335C146.584 18.2335 145.783 19.4028 145.783 21.016C145.783 22.6144 146.598 23.7688 147.814 23.7688C149.03 23.7688 149.846 22.5255 149.846 20.9715C149.831 19.4028 149.045 18.2335 147.829 18.2335Z" fill="white"/>
<path d="M160.891 24.8787H159.172V20.4239C159.172 19.0475 158.638 18.3667 157.6 18.3667C156.577 18.3667 155.88 19.2399 155.88 20.2612V24.8639H154.16V19.3435C154.16 18.6627 154.145 17.9227 154.101 17.1235H155.613L155.687 18.3223H155.732C156.191 17.4935 157.14 16.9607 158.193 16.9607C159.824 16.9607 160.891 18.2039 160.891 20.2315V24.8787Z" fill="white"/>
<path d="M172.176 18.426H170.278V22.1852C170.278 23.1472 170.619 23.6208 171.286 23.6208C171.583 23.6208 171.85 23.5912 172.057 23.5468L172.102 24.8492C171.761 24.9824 171.316 25.0417 170.767 25.0417C169.403 25.0417 168.602 24.2869 168.602 22.3332V18.426H167.476V17.1384H168.602V15.7176L170.293 15.1996V17.1236H172.191V18.426" fill="white"/>
<path d="M181.309 24.8787H179.589V20.4535C179.589 19.0623 179.055 18.3667 178.017 18.3667C177.127 18.3667 176.297 18.9735 176.297 20.2019V24.8639H174.577V13.5715H176.297V18.2187H176.327C176.875 17.3752 177.646 16.9607 178.655 16.9607C180.3 16.9607 181.309 18.2335 181.309 20.2612V24.8787Z" fill="white"/>
<path d="M190.117 21.4155H184.942C184.971 22.8807 185.95 23.7095 187.388 23.7095C188.159 23.7095 188.856 23.5763 189.479 23.3395L189.746 24.5383C189.019 24.8638 188.159 25.0118 187.151 25.0118C184.719 25.0118 183.281 23.4874 183.281 21.1046C183.281 18.7366 184.749 16.9458 186.958 16.9458C188.931 16.9458 190.191 18.411 190.191 20.631C190.191 20.9419 190.176 21.2083 190.117 21.4155ZM188.545 20.1871C188.545 18.9883 187.937 18.1447 186.84 18.1447C185.846 18.1447 185.061 19.0031 184.957 20.1871H188.545Z" fill="white"/>
</svg>
