<svg width="46" height="38" viewBox="0 0 46 38" fill="none" xmlns="http://www.w3.org/2000/svg">
<path d="M45.5288 7.7441C44.6942 10.2842 42.7763 11.3359 40.6095 11.886C38.3695 12.4522 36.0856 12.8244 33.8016 13.2612C33.4063 13.3421 33.0989 13.5039 32.8061 13.7789C29.4534 17.0471 26.086 20.2991 22.7187 23.5512C22.5137 23.7453 22.2209 23.9071 21.9574 23.9556C20.4055 24.2792 18.8536 24.5866 17.3016 24.8778C17.1699 24.9102 17.0528 24.894 16.8624 24.9102C17.4041 22.0141 17.9458 19.1666 18.5022 16.2382C17.5213 16.4323 16.5989 16.6103 15.6619 16.7883C10.4938 17.8237 5.69164 16.8206 1.29945 13.5848C1.10912 13.4554 0.977359 13.1479 0.904156 12.9053C0.787031 12.4199 0.728469 11.9022 0.640625 11.3359C1.75331 11.1094 2.85136 10.899 4.00797 10.6725C2.95384 7.3558 1.91436 4.10379 0.860234 0.803235C2.09005 0.560547 3.29058 0.382576 4.46183 0.0751716C5.22314 -0.135158 5.72092 0.10753 6.27726 0.657622C8.89793 3.26247 11.5479 5.81878 14.1978 8.37509C14.3442 8.5207 14.6224 8.6016 14.8127 8.56924C19.9223 7.59849 25.0173 6.59538 30.1268 5.60845C32.9818 5.05836 35.8513 4.47591 38.7062 3.92582C40.1557 3.65077 41.5904 3.65077 42.9959 4.1685C44.1965 4.60534 45.1628 5.34958 45.5434 6.77335C45.5288 7.09693 45.5288 7.42052 45.5288 7.7441Z" fill="black"/>
<path d="M45.5288 37.1092C30.5807 37.1092 15.6326 37.1092 0.655273 37.1092C0.655273 35.734 0.655273 34.3911 0.655273 32.9674C0.845601 32.9674 1.05057 32.9674 1.25554 32.9674C15.8083 32.9674 30.3611 32.9674 44.9139 32.9674C45.1188 32.9674 45.3238 32.9512 45.5288 32.9512C45.5288 34.3264 45.5288 35.7178 45.5288 37.1092Z" fill="black"/>
</svg>
