<svg width="54" height="47" viewBox="0 0 54 47" fill="none" xmlns="http://www.w3.org/2000/svg">
<path d="M47.5697 22.3292C45.9922 24.2114 43.8604 24.4406 41.6511 24.1535C39.3679 23.8547 37.104 23.3743 34.8199 22.9493C34.4229 22.8803 34.0833 22.9112 33.7221 23.0442C29.5493 24.6687 25.3678 26.2742 21.1863 27.8798C20.9329 27.9742 20.6071 28.0103 20.3441 27.9597C18.7838 27.6938 17.2284 27.4141 15.6782 27.1205C15.5441 27.1021 15.439 27.0473 15.255 26.9946C16.6683 24.7053 18.0663 22.4576 19.5034 20.1458C18.5204 19.9688 17.5975 19.7985 16.6608 19.6231C11.4776 18.7016 7.27483 16.1634 4.15434 11.8576C4.01576 11.6802 3.98778 11.371 3.99468 11.1377C4.03602 10.6813 4.14253 10.2177 4.23664 9.70229C5.35369 9.89762 6.45191 10.1017 7.61026 10.3124C7.65408 7.1049 7.69148 3.95793 7.73025 0.764298C8.96249 0.98675 10.147 1.25435 11.3444 1.40093C12.1259 1.4872 12.5183 1.86903 12.8698 2.53445C14.5213 5.68058 16.2155 8.79541 17.9097 11.9102C18.0019 12.0861 18.2382 12.2526 18.4273 12.2915C23.5352 13.2479 28.6395 14.1714 33.7525 15.114C36.6089 15.6418 39.4891 16.147 42.3455 16.6747C43.7944 16.9463 45.1436 17.4482 46.3037 18.3829C47.2964 19.1767 47.9728 20.1517 47.8864 21.5035C47.7717 21.7753 47.6707 22.0522 47.5697 22.3292Z" fill="black"/>
<path d="M47.4846 41C32.5047 41 17.5249 41 2.51562 41C2.51562 39.7457 2.51562 38.5209 2.51562 37.2223C2.70636 37.2223 2.91176 37.2223 3.11717 37.2223C17.7009 37.2223 32.2847 37.2223 46.8684 37.2223C47.0738 37.2223 47.2792 37.2075 47.4846 37.2075C47.4846 38.4619 47.4846 39.7309 47.4846 41Z" fill="black"/>
</svg>
