<svg width="55" height="71" viewBox="0 0 55 71" fill="none" xmlns="http://www.w3.org/2000/svg">
<g clip-path="url(#clip0_3_13)">
<path d="M1.99998 70.5C1.35085 70.1062 1.17542 69.5413 1.17542 68.8223C1.2105 65.3642 1.12278 61.8891 1.28068 58.431C1.57892 52.3024 6.807 46.9441 13.0351 46.1566C13.5614 46.0881 14.1052 46.0196 14.6316 46.0196C23.2456 46.0196 31.8596 45.9512 40.4737 46.0368C47.386 46.1052 53.3509 51.7545 53.7017 58.4995C53.8772 62.026 53.7719 65.5525 53.807 69.0791C53.807 69.7125 53.5263 70.1576 53 70.4828C36 70.5 19 70.5 1.99998 70.5ZM51.3509 68.1375C51.3684 68.0177 51.4035 67.9321 51.4035 67.8465C51.386 64.7651 51.4737 61.7007 51.3158 58.6193C51.0175 53.0556 46.0702 48.4163 40.3509 48.365C31.7895 48.2965 23.2105 48.2965 14.6491 48.365C8.89472 48.4163 3.96489 53.0556 3.6491 58.6707C3.49121 61.6665 3.57892 64.6795 3.56138 67.6924C3.56138 67.8465 3.61401 68.0006 3.63156 68.1375C5.99998 68.1375 8.33331 68.1375 10.7544 68.1375C10.7544 67.8636 10.7544 67.624 10.7544 67.3672C10.7544 65.3814 10.7368 63.3955 10.7544 61.4268C10.7544 60.5195 11.2631 59.9717 11.9824 60.006C12.6842 60.0402 13.1228 60.5538 13.1403 61.4611C13.1579 63.4469 13.1403 65.4327 13.1403 67.4014C13.1403 67.6411 13.1579 67.8807 13.1754 68.1375C23.1579 68.1375 33.0702 68.1375 43.0351 68.1375C43.0351 67.8807 43.0351 67.6411 43.0351 67.4185C43.0351 65.5354 43.0351 63.6352 43.0351 61.7521C43.0351 61.598 43.0351 61.4268 43.0351 61.2728C43.0702 60.5195 43.5614 60.006 44.2281 60.006C44.8947 60.006 45.4035 60.5195 45.4035 61.2899C45.421 63.3442 45.4035 65.3814 45.4035 67.4356C45.4035 67.6753 45.4035 67.915 45.4035 68.1375C47.4737 68.1375 49.4035 68.1375 51.3509 68.1375Z" fill="black"/>
<path d="M45.4737 40.1136C45.0877 42.5959 43.807 43.6744 41.2632 43.6744C39.2105 43.6744 37.1579 43.7258 35.1053 43.6573C34.3684 43.6402 33.6316 43.332 32.8772 43.178C32.6491 43.1266 32.386 43.0581 32.1579 43.1095C23.5439 45.0782 15.0877 41.4832 10.7368 33.985C6.17544 26.1102 8.42105 15.5477 15.9123 10.2066C22.386 5.58443 29.3509 4.98526 36.4561 8.56316C42.1228 11.422 45.4211 16.1469 46.4035 22.3098C47.0877 26.6238 46.2456 30.681 43.9649 34.4472C43.8947 34.5671 43.8246 34.6869 43.7544 34.841C44.7719 35.5257 45.3158 36.4673 45.4561 37.6314C47.6316 37.3232 49.7368 35.3374 50.0526 33.3002C50.0702 33.1291 49.9298 32.8552 49.7895 32.7696C48.3684 31.9992 47.8246 30.7837 47.8246 29.243C47.8421 26.367 47.8246 23.5081 47.8246 20.6321C47.8246 19.6906 48.0702 18.8517 48.6491 18.0814C48.7895 17.8931 48.807 17.5164 48.7193 17.2939C47.386 13.7331 45.2281 10.703 42.2807 8.25501C37.3509 4.16355 31.614 2.21197 25.1754 2.98233C16.1754 4.09507 9.96491 8.90554 6.36842 16.9858C6.14035 17.4993 6.14035 17.8759 6.50877 18.4066C6.89474 18.9544 7.12281 19.7077 7.14035 20.3753C7.21053 23.4739 7.19298 26.5724 7.1579 29.671C7.14035 31.5541 5.75439 32.975 3.87719 33.1462C2.17544 33.3174 0.561404 32.1875 0.122807 30.4927C0.0350877 30.1161 0.0175439 29.7224 0.0175439 29.3457C0 26.4697 0 23.5766 0 20.6835C0 18.4238 1.19298 17.1398 3.49123 16.8488C3.68421 16.8317 3.94737 16.6434 4.01754 16.4722C6.26316 10.8058 10.1053 6.49175 15.5439 3.56438C20.2632 1.01363 25.3158 -0.0135107 30.6667 0.756849C39.386 2.00654 45.7544 6.5431 49.8947 14.1097C50.2807 14.8287 50.5965 15.5991 50.8947 16.3523C51.0175 16.6776 51.1579 16.8488 51.5614 16.883C53.6667 17.0713 54.9649 18.4238 54.9649 20.478C54.9825 23.5081 54.9825 26.5382 54.9649 29.5683C54.9649 31.0405 54.2807 32.119 52.9298 32.8209C52.7368 32.9236 52.5088 33.1462 52.4737 33.3345C51.7018 37.1007 49.2807 39.2748 45.4737 40.1136ZM31.0351 40.9182C31.0351 39.9938 31.0351 39.1379 31.0351 38.2819C31.0526 35.7654 32.5439 34.2932 35.1228 34.2932C36.9474 34.2932 38.7719 34.276 40.579 34.3103C41.0526 34.3103 41.3509 34.1904 41.5965 33.7796C45.1579 27.942 45.1754 22.0872 41.5965 16.2667C37.4561 9.53894 28.1754 6.79989 20.8421 10.0183C12.5088 13.6818 8.7193 22.5152 11.8947 30.8693C14.7193 38.3161 23.1579 42.7329 31.0351 40.9182ZM38.2807 36.7241C37.1053 36.7241 35.9474 36.7069 34.7719 36.7241C33.9474 36.7412 33.5263 37.152 33.5088 37.9395C33.4912 38.6414 33.4912 39.3433 33.5088 40.0623C33.5263 40.8498 33.9298 41.3291 34.7368 41.3462C37.0702 41.3805 39.4035 41.3805 41.7368 41.3462C42.579 41.3291 43 40.8669 43.0175 40.0281C43.0351 39.3433 43.0351 38.6585 43.0175 37.9738C42.9825 37.1349 42.5614 36.7241 41.7018 36.7241C40.579 36.7069 39.4386 36.7069 38.2807 36.7241ZM2.40351 24.9804C2.40351 26.4355 2.40351 27.8906 2.40351 29.3457C2.40351 29.6196 2.42105 29.9107 2.52632 30.1503C2.75439 30.6468 3.19298 30.9036 3.77193 30.8009C4.42105 30.6981 4.77193 30.2359 4.77193 29.4485C4.78947 26.4868 4.78947 23.5252 4.77193 20.5808C4.77193 19.7248 4.2807 19.2112 3.54386 19.2284C2.82456 19.2455 2.40351 19.7248 2.38597 20.5636C2.38597 22.0188 2.40351 23.5081 2.40351 24.9804ZM52.5965 25.0488C52.5965 23.5766 52.5965 22.0872 52.5965 20.615C52.5965 19.7248 52.1754 19.2112 51.4386 19.2112C50.7018 19.1941 50.2281 19.7077 50.2105 20.5808C50.193 23.5424 50.193 26.504 50.2105 29.4485C50.2105 30.3044 50.7018 30.8522 51.4211 30.8351C52.1404 30.8351 52.579 30.3044 52.5965 29.4313C52.5965 27.9591 52.5965 26.504 52.5965 25.0488Z" fill="black"/>
</g>
<defs>
<clipPath id="clip0_3_13">
<rect width="55" height="70" fill="white" transform="translate(0 0.5)"/>
</clipPath>
</defs>
</svg>
