<svg width="29" height="29" viewBox="0 0 29 29" fill="none" xmlns="http://www.w3.org/2000/svg">
<g clip-path="url(#clip0_81_4935)">
<path d="M23.6512 0.000113586C24.2522 0.208372 24.4576 0.647203 24.4576 1.24966C24.4424 3.00499 24.45 4.76031 24.45 6.50819C24.45 7.3561 24.0848 7.70568 23.2176 7.70568C22.7003 7.70568 22.1753 7.71312 21.658 7.70568C21.0266 7.69824 20.6082 7.31891 20.6006 6.70158C20.5854 4.7975 20.593 2.89342 20.6006 0.989342C20.6006 0.468695 20.9201 0.163745 21.3918 -0.00732422C22.1449 0.000113586 22.8981 0.000113586 23.6512 0.000113586Z" fill="#FFBD00"/>
<path d="M7.54686 0C8.15547 0.208259 8.36848 0.632214 8.36087 1.24955C8.34566 3.01231 8.35326 4.77507 8.35326 6.53784C8.35326 7.34856 7.98049 7.71301 7.15888 7.71301C6.66438 7.71301 6.1775 7.71301 5.68301 7.71301C4.8766 7.71301 4.50383 7.34112 4.50383 6.54527C4.50383 5.16928 4.50383 3.79328 4.50383 2.41729C4.50383 2.03052 4.51905 1.64376 4.49622 1.25699C4.45819 0.654527 4.68641 0.215697 5.28741 0C6.04056 0 6.79371 0 7.54686 0Z" fill="#FFBD00"/>
<path d="M2.57115 3.21338C2.57115 3.34726 2.57115 3.44395 2.57115 3.54808C2.57115 4.55962 2.57115 5.57116 2.57115 6.57527C2.57115 8.3529 3.8264 9.58014 5.6446 9.59501C6.17713 9.60245 6.70966 9.60245 7.23458 9.59501C9.06039 9.58014 10.3232 8.34546 10.3232 6.56039C10.3232 5.56372 10.3232 4.55962 10.3232 3.56296C10.3232 3.45883 10.3232 3.3547 10.3232 3.23569C13.1076 3.23569 15.8768 3.23569 18.6687 3.23569C18.6687 3.33982 18.6687 3.44395 18.6687 3.54808C18.6687 4.5745 18.6687 5.60835 18.6687 6.63477C18.6763 8.27108 19.8707 9.5132 21.5368 9.58758C22.2139 9.61733 22.8909 9.61733 23.5604 9.58758C25.2112 9.5132 26.398 8.2934 26.4132 6.6794C26.4208 5.6381 26.4132 4.60425 26.4132 3.56296C26.4132 3.45883 26.4132 3.36213 26.4132 3.25801C27.6609 3.22825 28.8476 4.29186 28.9618 5.52654C28.977 5.69761 28.9846 5.86867 28.9846 6.03231C28.9846 12.7412 28.9846 19.4501 28.9922 26.159C28.9922 27.0813 28.6955 27.8548 27.9423 28.435C27.4098 28.844 26.7936 28.9854 26.1318 28.9854C19.8555 28.9854 13.5793 28.9854 7.30305 28.9854C5.78914 28.9854 4.27524 28.9928 2.75373 28.9854C1.44523 28.9779 0.441033 28.2565 0.0910857 27.0441C0.0150102 26.7763 -0.0078125 26.4863 -0.0078125 26.2036C-0.000204944 19.4799 -0.000204944 12.7412 -0.000204944 6.00255C-0.000204944 4.66375 0.684475 3.72659 1.93972 3.33982C2.12991 3.28032 2.33531 3.25801 2.57115 3.21338ZM14.4694 26.2259C17.7254 26.2259 20.9738 26.2259 24.2299 26.2259C25.1123 26.2259 25.5612 25.7871 25.5612 24.9169C25.5612 21.5029 25.5612 18.0815 25.5612 14.6676C25.5612 13.7974 25.1123 13.366 24.2223 13.366C17.7254 13.366 11.2285 13.366 4.73169 13.366C3.8264 13.366 3.38516 13.7974 3.38516 14.6899C3.38516 18.0964 3.38516 21.5029 3.38516 24.9094C3.38516 25.7945 3.8264 26.2259 4.7393 26.2259C7.98012 26.2259 11.2285 26.2259 14.4694 26.2259Z" fill="#FFBD00"/>
<path d="M14.5151 15.3444C14.8726 15.3444 15.2302 15.3369 15.5877 15.3444C16.0746 15.3518 16.3409 15.6047 16.3485 16.0807C16.3561 16.7873 16.3561 17.4939 16.3485 18.2005C16.3409 18.669 16.0974 18.9368 15.6258 18.9442C14.8726 18.9666 14.1195 18.9666 13.3663 18.9442C12.8947 18.9294 12.6512 18.6616 12.6512 18.193C12.6436 17.4939 12.6436 16.7947 12.6512 16.0956C12.6588 15.5898 12.9175 15.3369 13.4424 15.3369C13.8 15.3369 14.1575 15.3444 14.5151 15.3444Z" fill="#FFBD00"/>
<path d="M14.4846 24.6937C14.1271 24.6937 13.7695 24.7011 13.412 24.6937C12.9251 24.6862 12.6588 24.4259 12.6512 23.9573C12.6436 23.2433 12.6436 22.5218 12.6512 21.8078C12.6588 21.3616 12.9175 21.0938 13.3663 21.0864C14.1195 21.0715 14.8726 21.0715 15.6258 21.0864C16.0822 21.0938 16.3409 21.3616 16.3409 21.8078C16.3485 22.5367 16.3561 23.2582 16.3409 23.9871C16.3333 24.4259 16.0594 24.6714 15.6106 24.6937C15.5877 24.6937 15.5725 24.6937 15.5497 24.6937C15.1997 24.6937 14.8422 24.6937 14.4846 24.6937Z" fill="#FFBD00"/>
<path d="M6.78593 17.1518C6.78593 16.7948 6.77832 16.4378 6.78593 16.0734C6.79354 15.6048 7.04459 15.3519 7.51626 15.3444C8.2618 15.337 8.99973 15.337 9.74527 15.3444C10.1789 15.3519 10.4452 15.575 10.4604 15.999C10.4832 16.7651 10.4832 17.5237 10.4604 18.2898C10.4452 18.7063 10.1941 18.9369 9.74527 18.9518C8.99212 18.9667 8.23897 18.9741 7.48582 18.9518C7.01416 18.9369 6.78593 18.6766 6.77832 18.2006C6.77832 17.8436 6.78593 17.5014 6.78593 17.1518Z" fill="#FFBD00"/>
<path d="M22.2138 17.1444C22.2138 17.5014 22.2214 17.8584 22.2138 18.2229C22.2062 18.6766 21.9703 18.9369 21.5063 18.9518C20.7531 18.9741 20 18.9741 19.2468 18.9518C18.7828 18.9369 18.5393 18.6915 18.5241 18.2378C18.5089 17.5089 18.5089 16.7874 18.5241 16.0585C18.5317 15.5899 18.798 15.3519 19.2773 15.3444C20 15.337 20.7227 15.337 21.4454 15.3444C21.9551 15.3519 22.1986 15.5973 22.2062 16.1031C22.2138 16.4527 22.2138 16.8023 22.2138 17.1444Z" fill="#FFBD00"/>
<path d="M6.78561 22.879C6.78561 22.522 6.778 22.1649 6.78561 21.8005C6.79322 21.3542 7.04426 21.0939 7.50072 21.079C8.25387 21.0642 9.00702 21.0642 9.76016 21.079C10.1938 21.0865 10.4525 21.3245 10.4677 21.7484C10.4905 22.4996 10.4905 23.2583 10.4677 24.0095C10.4525 24.4484 10.1862 24.6789 9.73734 24.6864C8.9918 24.6938 8.25387 24.6938 7.50833 24.6864C7.05187 24.6789 6.80082 24.426 6.78561 23.9798C6.78561 23.9575 6.78561 23.9426 6.78561 23.9203C6.78561 23.5781 6.78561 23.2286 6.78561 22.879Z" fill="#FFBD00"/>
<path d="M22.214 22.8864C22.214 23.2509 22.2216 23.6228 22.214 23.9872C22.2064 24.4186 21.9554 24.6789 21.5141 24.6864C20.7534 24.7012 19.9926 24.7012 19.2243 24.6864C18.8058 24.6789 18.5472 24.4409 18.5396 24.0318C18.5168 23.2657 18.5168 22.5071 18.5396 21.741C18.5548 21.3245 18.8135 21.0865 19.2471 21.079C20.0002 21.0642 20.7534 21.0642 21.5065 21.079C21.963 21.0865 22.1988 21.3542 22.214 21.8079C22.214 21.8302 22.214 21.8451 22.214 21.8674C22.214 22.2021 22.214 22.5443 22.214 22.8864Z" fill="#FFBD00"/>
</g>
<defs>
<clipPath id="clip0_81_4935">
<rect width="29" height="29" fill="white"/>
</clipPath>
</defs>
</svg>
