<svg width="69" height="77" viewBox="0 0 69 77" fill="none" xmlns="http://www.w3.org/2000/svg">
<g clip-path="url(#clip0_3_27)">
<path d="M38.467 0C39.8327 0.64247 40.1253 1.70254 39.9628 3.11598C39.0848 10.4723 38.2394 17.8285 37.394 25.1848C37.1663 27.1122 36.9387 29.0718 36.7111 30.9992C36.6786 31.1598 36.7111 31.3525 36.7111 31.5774C37.0038 31.5774 37.2639 31.5774 37.5565 31.5774C42.4665 31.5774 47.344 31.5774 52.254 31.5774C53.7823 31.5774 54.6927 32.4447 54.4976 33.7618C54.4326 34.083 54.3025 34.4364 54.14 34.7255C47.1489 48.3137 40.1579 61.902 33.1668 75.4581C32.484 76.8073 31.4109 77.257 30.2729 76.7751C29.3949 76.3897 29.0047 75.7151 29.0697 74.8156C29.2323 73.1773 29.4274 71.539 29.59 69.9007C30.1753 64.6967 30.7606 59.4927 31.3784 54.2887C31.6711 51.8152 31.9312 49.3096 32.2564 46.7397C31.8987 46.7397 31.606 46.7397 31.3134 46.7397C26.631 46.7397 21.9811 46.7397 17.2988 46.7397C14.9901 46.7397 13.9821 45.1656 15.0226 43.1097C21.9161 29.2645 28.8746 15.4193 35.8982 1.60617C36.2234 0.995828 36.9062 0.546099 37.394 0C37.7516 0 38.1093 0 38.467 0Z" fill="black"/>
<path d="M29.525 4.85065C29.4274 5.07551 29.3299 5.26825 29.2323 5.46099C27.8341 8.25574 26.4359 11.0826 24.9727 13.8452C24.7776 14.1986 24.4199 14.5519 24.0297 14.7126C16.1932 18.2783 10.9581 24.1247 9.03958 32.4447C6.66588 42.7242 9.75495 51.4297 17.754 58.3684C20.0302 60.3279 22.6315 61.7413 25.4929 62.7693C25.688 62.8335 25.8506 62.9299 26.1107 63.0263C25.7856 65.7568 25.4929 68.4873 25.1678 71.2178C11.0556 67.5557 -1.56079 53.5499 0.130066 35.3037C1.78841 17.6358 16.2257 6.39257 29.525 4.85065Z" fill="black"/>
<path d="M43.7997 5.71796C59.0825 9.86189 70.5283 24.5423 68.8374 41.7284C67.049 59.7497 52.3841 70.6395 39.5075 72.1493C39.6051 71.9245 39.7026 71.7317 39.8002 71.539C41.2634 68.7121 42.6942 65.8531 44.1899 63.0584C44.385 62.705 44.7102 62.3838 45.0679 62.2232C52.0589 59.0108 56.9689 53.9032 59.3426 46.6754C62.139 38.1948 60.7733 30.2603 55.4731 23.0325C52.4166 18.8886 48.3845 15.9975 43.5071 14.2307C43.1494 14.1022 42.8242 14.0379 42.8893 13.4918C43.2144 10.8898 43.5071 8.35208 43.7997 5.71796Z" fill="black"/>
</g>
<defs>
<clipPath id="clip0_3_27">
<rect width="69" height="77" fill="white"/>
</clipPath>
</defs>
</svg>
