<svg width="22" height="22" viewBox="0 0 22 22" fill="none" xmlns="http://www.w3.org/2000/svg">
<path d="M10.6512 4.09863C10.8848 4.09863 11.1184 4.09863 11.352 4.09863C11.6 4.13817 11.8516 4.16333 12.0961 4.21724C14.8708 4.83905 16.6284 7.54911 16.0857 10.3418C15.8952 11.3231 15.5357 12.236 15.0541 13.1022C14.1052 14.8167 12.8616 16.2975 11.4491 17.6418C11.3485 17.7388 11.2227 17.8143 11.1112 17.9005C11.0393 17.9005 10.9675 17.9005 10.8956 17.9005C10.7949 17.8287 10.6871 17.764 10.5973 17.6777C9.5693 16.718 8.64558 15.6685 7.83687 14.5184C7.10005 13.4688 6.47824 12.3618 6.10804 11.1254C5.73064 9.85662 5.6911 8.59144 6.21227 7.35502C6.88799 5.7448 8.07409 4.70247 9.77058 4.25678C10.0545 4.1813 10.3528 4.14895 10.6512 4.09863ZM13.8752 9.36061C13.9435 7.8043 12.6963 6.47443 11.0933 6.39895C9.53695 6.32707 8.20348 7.57427 8.12441 9.17371C8.04893 10.7408 9.30692 12.0779 10.9207 12.1498C12.4735 12.218 13.8033 10.9636 13.8752 9.36061Z" fill="#FFBD00"/>
<circle cx="11" cy="11" r="10" stroke="#FFBD00" stroke-width="2"/>
</svg>
