<svg width="83" height="72" viewBox="0 0 83 72" fill="none" xmlns="http://www.w3.org/2000/svg">
<g clip-path="url(#clip0_3_32)">
<path d="M83 41.8764C82.4289 42.2883 81.9122 42.865 81.2867 43.1121C78.3768 44.3478 75.4397 45.5011 72.5026 46.6545C71.9043 46.9016 71.6596 47.1762 71.6596 47.8627C71.6867 55.1396 71.6867 62.4165 71.6867 69.6934C71.6867 71.5057 71.2244 71.9725 69.4295 71.9725C47.0478 71.9725 24.6661 71.9725 2.2844 71.9725C0.516706 71.9725 0.0543864 71.4783 0.0543864 69.6659C0.0543864 55.9634 0.0815817 42.2334 0.0271912 28.5309C0.0271912 26.8833 0.299144 26.1419 2.20281 25.373C15.8005 19.9085 29.3981 14.4439 42.9957 8.97941C50.1481 6.09611 57.3276 3.21281 64.48 0.32952C66.1933 -0.356979 66.7916 -0.0823793 67.4715 1.62014C72.557 14.5263 77.6425 27.405 82.728 40.3112C82.8096 40.5034 82.9184 40.6956 83 40.8879C83 41.2174 83 41.5469 83 41.8764ZM68.3689 68.6773C68.3689 55.524 68.3689 42.4256 68.3689 29.3272C46.6399 29.3272 24.9925 29.3272 3.31782 29.3272C3.31782 42.4805 3.31782 55.5515 3.31782 68.6773C24.9925 68.6773 46.6399 68.6773 68.3689 68.6773ZM64.7791 3.76201C46.4767 11.1213 28.2287 18.4531 9.98066 25.8124C13.1081 25.9771 16.1812 25.9771 19.2543 25.9771C19.4446 25.9771 19.635 25.8398 19.8254 25.7574C20.2877 25.4828 20.6684 25.0984 21.1579 24.9062C27.3584 22.3799 33.559 19.881 39.7867 17.3822C44.5731 15.46 49.3594 13.5378 54.1458 11.643C55.152 11.2311 55.6687 11.3959 56.3758 12.2197C58.497 14.7185 61.1894 15.8993 64.4528 15.762C65.595 15.7071 66.0301 15.9542 66.4653 16.9977C67.5803 19.7712 68.6681 22.5446 69.8103 25.3181C69.9191 25.5652 70.0822 25.8947 70.2998 25.9771C71.5236 26.5263 71.6867 26.746 71.6867 28.0366C71.6867 32.8696 71.6867 37.6751 71.6867 42.508C71.6867 42.7826 71.6867 43.0572 71.6867 43.4691C74.3247 42.3982 76.7723 41.4096 79.247 40.4211C74.4063 28.1465 69.5927 15.9817 64.7791 3.76201ZM66.4653 25.9497C66.3837 25.6751 66.3021 25.4279 66.2205 25.2082C65.5134 23.4233 64.7791 21.6384 64.1265 19.8261C63.9089 19.2494 63.6369 19.0572 63.0386 19.0023C59.9384 18.8375 57.2461 17.6293 54.9888 15.46C54.6081 15.103 54.3362 15.0481 53.8738 15.2403C45.3073 18.6728 36.768 22.1053 28.2287 25.5378C28.0111 25.6201 27.8208 25.73 27.44 25.9222C40.5754 25.9497 53.4931 25.9497 66.4653 25.9497Z" fill="black"/>
<path d="M35.8434 32.54C42.1799 32.54 48.5436 32.54 54.8801 32.54C56.8925 32.54 57.0013 32.6224 57.7084 34.4897C58.7962 37.2906 60.7814 39.1853 63.5825 40.2014C64.8879 40.6956 65.1599 40.9977 65.1599 42.3982C65.1871 46.8192 65.1599 51.2403 65.1599 55.6339C65.1599 56.9245 64.8335 57.2815 63.6369 57.7208C60.6455 58.7918 58.633 60.8512 57.5724 63.8444C57.1101 65.1625 56.8381 65.3821 55.4784 65.3821C42.3974 65.3821 29.2893 65.3821 16.2084 65.3821C15.0118 65.3821 14.6039 65.0801 14.2231 63.9542C13.1353 60.8512 11.0957 58.7368 7.9954 57.6659C6.93478 57.3089 6.60844 56.897 6.60844 55.7437C6.58124 51.2403 6.58124 46.7368 6.60844 42.2609C6.60844 40.9428 6.90759 40.6407 8.13138 40.2014C11.0685 39.1304 13.1081 37.0984 14.1687 34.1327C14.631 32.8146 14.9574 32.54 16.3443 32.54C22.8168 32.54 29.3165 32.54 35.8434 32.54ZM35.8434 62.1419C41.8807 62.1419 47.9453 62.1419 53.9826 62.1419C54.4993 62.1419 54.7713 62.032 55.016 61.5103C56.3486 58.5995 58.4698 56.4577 61.3525 55.1396C61.7877 54.9474 61.9236 54.7002 61.9236 54.2334C61.8964 50.7185 61.8964 47.2037 61.9236 43.6888C61.9236 43.1945 61.7333 43.0023 61.3253 42.8101C58.4426 41.4645 56.3214 39.3226 54.9888 36.4119C54.7985 35.9725 54.5809 35.8078 54.0914 35.8078C41.9079 35.8352 29.7516 35.8078 17.5681 35.8078C17.133 35.8078 16.9155 35.9176 16.7251 36.3295C15.3925 39.2677 13.2713 41.4371 10.3614 42.7826C9.92626 42.9748 9.76309 43.1945 9.76309 43.6888C9.79029 47.1762 9.79029 50.6636 9.76309 54.151C9.76309 54.6728 9.92626 54.9199 10.3886 55.1396C13.2169 56.4577 15.3109 58.5446 16.6435 61.4005C16.9155 62.0046 17.269 62.1419 17.8673 62.1419C23.8502 62.1419 29.8332 62.1419 35.8434 62.1419Z" fill="black"/>
<path d="M45.6065 48.9886C45.6065 54.4256 41.2008 58.9016 35.8434 58.8742C30.4587 58.8467 26.0803 54.3982 26.1075 48.9611C26.1075 43.5515 30.4859 39.1304 35.8434 39.1304C41.228 39.103 45.6065 43.524 45.6065 48.9886ZM42.343 48.9337C42.3158 45.3089 39.4332 42.3982 35.8434 42.3982C32.2536 42.3982 29.3165 45.3639 29.3437 49.016C29.3437 52.6133 32.2536 55.5515 35.8434 55.5515C39.4603 55.5515 42.3702 52.6133 42.343 48.9337Z" fill="black"/>
<path d="M17.9217 46.5172C19.2271 46.5172 20.3693 47.6155 20.3965 48.9611C20.4237 50.3341 19.3087 51.4599 17.9217 51.4599C16.5891 51.4599 15.5013 50.3615 15.5013 49.016C15.5013 47.643 16.6163 46.5172 17.9217 46.5172ZM18.8463 49.1258C18.8463 49.016 18.8463 48.8787 18.8463 48.7689C18.52 48.5766 18.1936 48.1922 17.8945 48.2197C17.6225 48.2471 17.2418 48.6865 17.1874 48.9885C17.1058 49.4828 17.4866 49.8398 17.9761 49.73C18.3024 49.675 18.5744 49.3455 18.8463 49.1258Z" fill="black"/>
<path d="M53.7651 46.5172C55.0704 46.5172 56.2126 47.643 56.2398 48.9611C56.267 50.3341 55.1248 51.4599 53.7651 51.4599C52.4325 51.4599 51.3719 50.3615 51.3719 48.9885C51.3447 47.6155 52.4325 46.5172 53.7651 46.5172ZM54.6897 49.1808C54.6897 49.0435 54.6897 48.9336 54.6897 48.7963C54.3634 48.5766 54.037 48.1922 53.7379 48.1922C53.4659 48.1922 53.0308 48.659 53.0308 48.9336C53.0308 49.1808 53.4387 49.675 53.7107 49.7025C54.0098 49.7574 54.3634 49.373 54.6897 49.1808Z" fill="black"/>
</g>
<defs>
<clipPath id="clip0_3_32">
<rect width="83" height="72" fill="white"/>
</clipPath>
</defs>
</svg>
