<svg width="11" height="25" viewBox="0 0 11 25" fill="none" xmlns="http://www.w3.org/2000/svg">
<g clip-path="url(#clip0_81_4923)">
<path d="M8.33739 17.7052C8.33739 19.703 8.34497 21.7007 8.33739 23.6985C8.33739 24.5707 7.48014 25.1476 6.6229 24.8662C6.09945 24.6974 5.77325 24.2612 5.77325 23.7055C5.77325 21.7711 5.77325 19.8366 5.77325 17.9022C5.77325 17.8178 5.80359 17.7052 5.75808 17.6419C5.6898 17.5505 5.56842 17.4379 5.46221 17.4309C5.38635 17.4239 5.27256 17.5645 5.21945 17.656C5.18152 17.7123 5.21187 17.8108 5.21187 17.8881C5.21187 19.8507 5.21187 21.8133 5.21187 23.7759C5.21187 24.2753 4.9767 24.6622 4.48359 24.8803C4.00566 25.0913 3.5429 25.035 3.12566 24.7325C2.8298 24.5145 2.6629 24.219 2.6629 23.8673C2.65532 21.5038 2.65532 19.1332 2.6629 16.7697C2.67049 15.0603 2.68566 13.358 2.69325 11.6487C2.69325 11.3743 2.49601 11.2126 2.29876 11.3392C2.20014 11.4025 2.14704 11.5713 2.14704 11.6979C2.13945 13.1118 2.14704 14.5328 2.13945 15.9467C2.13945 16.214 2.13187 16.4953 2.07118 16.7556C1.97256 17.1566 1.47945 17.4379 1.0167 17.4168C0.531179 17.3887 0.121524 17.0581 0.0456615 16.629C0.0304891 16.5235 0.0229029 16.418 0.0229029 16.3124C0.0229029 14.2654 0.0153167 12.2114 0.0229029 10.1644C0.0304891 8.68019 1.00911 7.58284 2.53394 7.33664C2.71601 7.3085 2.91325 7.30147 3.1029 7.30147C4.71876 7.30147 6.32704 7.29443 7.9429 7.30147C9.73325 7.3085 11.0077 8.4762 11.0153 10.1363C11.0305 12.2044 11.0229 14.2725 11.0153 16.3406C11.0153 17.0581 10.4539 17.5153 9.75601 17.3957C9.2629 17.3113 8.92152 16.9174 8.92152 16.4039C8.91394 15.3065 8.92152 14.2021 8.92152 13.1048C8.92152 12.6265 8.92152 12.1552 8.92152 11.6768C8.92152 11.4869 8.88359 11.311 8.62566 11.3181C8.37532 11.3251 8.36014 11.4939 8.36014 11.6768C8.33739 13.6746 8.33739 15.6934 8.33739 17.7052Z" fill="black"/>
<path d="M5.50778 0C7.1464 0 8.45882 1.23101 8.45123 2.75746C8.44364 4.25577 7.10847 5.50084 5.49261 5.48677C3.83881 5.47974 2.51881 4.2417 2.5264 2.70822C2.54157 1.2099 3.87674 0 5.50778 0Z" fill="black"/>
</g>
<defs>
<clipPath id="clip0_81_4923">
<rect width="11" height="25" fill="white"/>
</clipPath>
</defs>
</svg>
