<svg width="70" height="71" viewBox="0 0 70 71" fill="none" xmlns="http://www.w3.org/2000/svg">
<g clip-path="url(#clip0_3_17)">
<path d="M32.9452 70.5C31.6096 70.3288 30.274 70.1918 28.9726 69.9521C20.9247 68.5137 14.1781 64.7123 8.76712 58.6164C3.80137 53.0171 0.907533 46.476 0.188355 39.0445C-0.702056 29.9178 1.60959 21.5959 7.19178 14.2842C12.4315 7.41781 19.3322 3.03424 27.8082 1.25342C30.137 0.773969 32.5342 0.671229 34.9144 0.499997C36.387 0.397257 37.5342 1.54452 37.6027 2.9315C37.6884 4.42123 36.7295 5.53424 35.2055 5.7226C33.1678 5.9452 31.113 5.99657 29.1096 6.37329C23.9212 7.36644 19.3493 9.67808 15.3938 13.1884C10.0856 17.8973 6.74657 23.7363 5.66781 30.7568C4.28082 39.7808 6.55822 47.8801 12.5 54.8664C16.4555 59.5069 21.387 62.7089 27.2945 64.1815C37.5856 66.75 46.8493 64.5925 54.8288 57.5377C60.0856 52.9144 63.2021 47.0411 64.3322 40.1575C64.5719 38.6849 64.589 37.161 64.6918 35.6712C64.8116 33.8048 66.0616 32.6575 67.7569 32.8973C68.9555 33.0685 69.589 33.8904 70 34.9349C70 35.8082 70 36.6644 70 37.5377C69.9486 38.0342 69.8801 38.5137 69.8288 39.0103C68.9897 46.5445 66.113 53.1884 61.0445 58.8219C55.6507 64.798 48.9726 68.5308 41.0274 69.9521C39.7089 70.1918 38.3733 70.3117 37.0548 70.5C35.6849 70.5 34.3151 70.5 32.9452 70.5Z" fill="black"/>
<path d="M37.0548 70.5C38.3733 70.3288 39.7089 70.1918 41.0274 69.952C48.9726 68.5479 55.6507 64.8151 61.0445 58.8219C66.113 53.1883 68.9897 46.5445 69.8288 39.0103C69.8801 38.5137 69.9486 38.0342 70 37.5377C70 48.5308 70 59.5068 70 70.5C59.0068 70.5 48.0308 70.5 37.0548 70.5Z" fill="white"/>
<path d="M32.637 41.7842C32.8938 41.4418 33.0308 41.2192 33.2021 41.0308C43.4247 30.8253 53.6644 20.6199 63.887 10.4144C64.6575 9.64383 65.4795 9.113 66.6096 9.33561C68.5274 9.6952 69.4007 11.9212 68.2363 13.4794C68.0651 13.7192 67.8425 13.9246 67.637 14.1301C56.6781 25.0719 45.7192 35.9966 34.7774 46.9212C33.2192 48.4794 31.7466 48.4623 30.2568 46.8527C25.9931 42.2294 21.7294 37.6062 17.4829 32.9657C16.3527 31.7329 16.3699 30.089 17.4829 29.0616C18.5788 28.0685 20.137 28.137 21.2157 29.25C22.2431 30.3116 23.2363 31.4246 24.2294 32.5034C26.9349 35.4315 29.6233 38.3767 32.3288 41.3048C32.4144 41.4075 32.4658 41.5103 32.637 41.7842Z" fill="black"/>
</g>
<defs>
<clipPath id="clip0_3_17">
<rect width="70" height="70" fill="white" transform="translate(0 0.5)"/>
</clipPath>
</defs>
</svg>
