<svg width="33" height="33" viewBox="0 0 33 33" fill="none" xmlns="http://www.w3.org/2000/svg">
<g clip-path="url(#clip0_185_391)">
<path d="M17.4725 33.0002C16.8268 33.0002 16.1812 33.0002 15.5356 33.0002C15.4387 32.984 15.35 32.9598 15.2531 32.9437C14.3573 32.8064 13.4373 32.7257 12.5576 32.5158C4.09171 30.4896 -1.3639 21.9813 0.298607 13.4084C0.984593 9.8485 2.6471 6.81327 5.32648 4.3754C9.1438 0.896197 13.6632 -0.492258 18.7799 0.153535C22.0403 0.565228 24.9134 1.90525 27.3749 4.07673C30.2722 6.63568 32.088 9.82428 32.7579 13.6506C32.8628 14.2722 32.9273 14.9018 33.008 15.5234C33.008 16.1692 33.008 16.815 33.008 17.4608C32.9919 17.5738 32.9677 17.6868 32.9516 17.7998C32.8708 18.3972 32.8305 18.9945 32.7175 19.5838C32.0961 22.8693 30.595 25.7108 28.2465 28.0841C25.785 30.5704 22.8232 32.1445 19.361 32.7419C18.7234 32.8549 18.0939 32.9114 17.4725 33.0002ZM27.504 25.9772C32.088 20.8916 32.7498 11.8101 26.4064 5.82844C20.3778 0.121245 10.5723 0.758965 5.27806 7.22497C-0.0403509 13.7233 1.72707 21.9652 5.52017 25.961C5.99633 24.1528 6.83565 22.5545 8.0785 21.1822C9.32942 19.8018 10.8386 18.7927 12.5979 18.1146C8.76449 15.3539 8.85326 10.4378 11.3309 7.71738C13.9053 4.90011 18.2392 4.61758 21.0396 7.10388C22.5568 8.45197 23.3881 10.1391 23.4284 12.1653C23.4769 14.6435 22.4196 16.6051 20.4182 18.0985C24.0741 19.5758 26.4226 22.1912 27.504 25.9772ZM16.7623 31.0628C17.0932 31.0386 17.6984 31.0063 18.2957 30.9336C21.0638 30.6027 23.5172 29.529 25.6801 27.7773C25.7608 27.7127 25.8173 27.5594 25.8012 27.4625C25.0667 22.2074 20.1599 18.599 14.9464 19.495C10.9112 20.1812 7.81217 23.3617 7.21496 27.4544C7.19882 27.5594 7.26339 27.7289 7.34409 27.7935C10.0154 29.9488 13.0741 31.0224 16.7623 31.0628ZM16.4879 17.3558C19.2318 17.3801 21.4754 15.1521 21.5158 12.3832C21.5561 9.66283 19.3045 7.37027 16.5524 7.33798C13.8004 7.30569 11.5326 9.53367 11.4923 12.3187C11.4519 15.0633 13.7117 17.3397 16.4879 17.3558Z" fill="white"/>
</g>
<defs>
<clipPath id="clip0_185_391">
<rect width="33" height="33" fill="white"/>
</clipPath>
</defs>
</svg>
