<svg width="32" height="33" viewBox="0 0 32 33" fill="none" xmlns="http://www.w3.org/2000/svg">
<g clip-path="url(#clip0_10_33)">
<path d="M13.6477 32.9644C6.18624 31.8721 -0.0776255 25.3005 -8.11018e-05 16.3756C0.0774633 7.13099 7.41834 -0.0977448 16.1205 -5.91616e-05C24.9089 0.0976265 31.9224 7.32637 31.9913 16.4289C32.0258 20.8425 30.5955 24.7411 27.6402 27.9824C25.3053 30.5489 22.4706 32.2362 19.1017 32.9911C19.1017 29.0215 19.1017 25.0963 19.1017 21.1267C20.1442 21.1267 21.1782 21.1267 22.2293 21.1267C22.4706 19.5548 22.7032 18.0274 22.9358 16.4644C21.3333 16.4644 19.7737 16.4644 18.1798 16.4644C18.1798 15.5408 18.1712 14.6439 18.1798 13.747C18.1798 13.4273 18.1798 13.0987 18.2401 12.7879C18.4296 11.6956 19.1189 11.0207 20.1873 10.9407C21.1523 10.8697 22.1259 10.8875 23.0909 10.8697C23.2546 10.8697 23.4097 10.8697 23.5907 10.8697C23.5907 9.50209 23.5907 8.17002 23.5907 6.78465C23.0048 6.71361 22.4103 6.62481 21.8158 6.57152C20.5147 6.45608 19.2137 6.37615 17.9299 6.71361C15.6294 7.32637 14.0958 9.02254 13.8028 11.4469C13.665 12.5659 13.6994 13.7026 13.665 14.8304C13.6477 15.3632 13.665 15.8961 13.665 16.4555C12.4587 16.4555 11.2783 16.4555 10.0721 16.4555C10.0721 18.0185 10.0721 19.5548 10.0721 21.1267C11.2525 21.1267 12.4415 21.1267 13.6477 21.1267C13.6477 25.0963 13.6477 29.0303 13.6477 32.9644Z" fill="white"/>
</g>
<defs>
<clipPath id="clip0_10_33">
<rect width="32" height="33" fill="white"/>
</clipPath>
</defs>
</svg>
