<svg width="32" height="33" viewBox="0 0 32 33" fill="none" xmlns="http://www.w3.org/2000/svg">
<path d="M16 0.515625C7.4375 0.515625 0.5 7.66992 0.5 16.5C0.5 25.3301 7.4375 32.4844 16 32.4844C24.5625 32.4844 31.5 25.3301 31.5 16.5C31.5 7.66992 24.5625 0.515625 16 0.515625ZM23.6125 11.4662L21.0688 23.8283C20.8813 24.7049 20.375 24.9176 19.6688 24.5051L15.7937 21.5596L13.925 23.4158C13.7188 23.6285 13.5437 23.809 13.1438 23.809L13.4187 19.742L20.6 13.0518C20.9125 12.7682 20.5312 12.607 20.1187 12.8906L11.2437 18.6527L7.41875 17.4217C6.5875 17.151 6.56875 16.5645 7.59375 16.152L22.5375 10.2094C23.2313 9.95156 23.8375 10.3834 23.6125 11.4662Z" fill="white"/>
</svg>
