<svg width="31" height="31" viewBox="0 0 31 31" fill="none" xmlns="http://www.w3.org/2000/svg">
<path d="M27.8134 9.18597C27.8331 9.46134 27.8331 9.73676 27.8331 10.0121C27.8331 18.4112 21.4404 28.0889 9.75634 28.0889C6.15671 28.0889 2.81283 27.0463 0 25.2368C0.511439 25.2957 1.00314 25.3154 1.53426 25.3154C4.50438 25.3154 7.23856 24.3123 9.42194 22.601C6.62879 22.5419 4.28805 20.7126 3.48157 18.1949C3.875 18.2538 4.26837 18.2932 4.68148 18.2932C5.2519 18.2932 5.82237 18.2145 6.35343 18.0769C3.44227 17.4867 1.25883 14.9296 1.25883 11.8414V11.7628C2.10461 12.2349 3.08819 12.5299 4.13063 12.5692C2.41933 11.4283 1.29819 9.48101 1.29819 7.27796C1.29819 6.09778 1.61285 5.01592 2.16364 4.07176C5.29119 7.92708 9.99235 10.4448 15.2639 10.7202C15.1655 10.2481 15.1065 9.75644 15.1065 9.26468C15.1065 5.76338 17.939 2.91125 21.4599 2.91125C23.2892 2.91125 24.9415 3.67838 26.1021 4.9176C27.5379 4.64223 28.9148 4.11111 30.1344 3.38334C29.6623 4.85862 28.6591 6.09784 27.3413 6.88458C28.6198 6.74696 29.8591 6.39282 30.9999 5.90112C30.1345 7.15995 29.0526 8.2811 27.8134 9.18597Z" fill="white"/>
</svg>
