<svg width="72" height="72" viewBox="0 0 72 72" fill="none" xmlns="http://www.w3.org/2000/svg">
<g clip-path="url(#clip0_5_7)">
<path d="M33.3063 21.5C33.4645 21.541 33.6227 21.582 33.7725 21.6311C34.8631 21.9918 35.604 22.9836 35.6123 24.123C35.6207 25.6721 35.6123 27.2213 35.6207 28.7623C35.6207 28.8607 35.6207 28.9672 35.6207 29.1148C36.3533 28.7131 37.0942 28.582 37.8601 28.8279C38.626 29.0656 39.1671 29.5656 39.5251 30.3033C40.3076 29.7541 41.1485 29.5738 42.0559 29.8852C42.955 30.1967 43.5128 30.8361 43.7708 31.6721C44.2037 31.541 44.6117 31.3525 45.0362 31.3115C46.6929 31.1557 47.9833 32.3525 47.9916 34.0164C48 35.8607 48 37.6967 47.9916 39.541C47.9916 40.4836 48 41.4262 47.95 42.3689C47.7252 46.1393 44.8614 49.4672 41.1068 50.2705C37.8767 50.959 35.0879 50.0984 32.7652 47.8033C29.7016 44.7787 26.6546 41.7377 23.6077 38.7049C22.9999 38.1066 22.8334 37.4016 23.1748 36.7459C23.308 36.4918 23.5078 36.2541 23.7242 36.0738C25.1395 34.8689 27.229 34.9098 28.611 36.1639C29.1438 36.6475 29.6766 37.1475 30.2677 37.6885C30.2677 37.5164 30.2677 37.4098 30.2677 37.3033C30.2677 32.9754 30.2677 28.6393 30.2677 24.3115C30.2677 23.0984 30.8837 22.1311 31.941 21.7049C32.1408 21.623 32.3573 21.5738 32.5654 21.5082C32.8068 21.5 33.0566 21.5 33.3063 21.5ZM31.4998 31.541C31.4998 33.959 31.4998 36.3689 31.4998 38.7869C31.4998 38.8689 31.4998 38.959 31.4998 39.041C31.4915 39.3197 31.3832 39.541 31.1002 39.6393C30.8421 39.7377 30.6173 39.6639 30.4175 39.4754C29.5351 38.6557 28.6609 37.8443 27.7702 37.0328C26.8128 36.1639 25.3476 36.1803 24.4318 37.0574C24.1821 37.2951 24.1738 37.5246 24.4069 37.7705C24.4735 37.8361 24.5401 37.9098 24.6067 37.9754C27.6619 41.0082 30.7089 44.041 33.7642 47.0738C36.0785 49.3771 39.6749 49.9754 42.572 48.4426C45.3443 46.9836 46.7179 44.6311 46.7512 41.5492C46.7762 39.0574 46.7595 36.5656 46.7595 34.0738C46.7595 33.9672 46.7595 33.8689 46.7429 33.7623C46.6679 33.1967 46.3766 32.7951 45.8438 32.582C44.903 32.2049 43.904 32.877 43.8707 33.9098C43.8541 34.4262 43.8707 34.9508 43.8624 35.4672C43.8541 35.9098 43.4462 36.1885 43.0466 36.0328C42.7635 35.9262 42.647 35.7049 42.647 35.4098C42.647 34.4098 42.6553 33.4098 42.647 32.4098C42.6386 31.623 42.0725 30.9918 41.3316 30.9426C40.4825 30.8852 39.7915 31.4836 39.7665 32.3197C39.7499 33 39.7665 33.6803 39.7582 34.3607C39.7499 34.8361 39.4335 35.1148 39.0089 35.0328C38.7009 34.9754 38.5261 34.7213 38.5261 34.3279C38.5261 33.3361 38.5344 32.3443 38.5178 31.3525C38.5094 30.7213 38.1431 30.1967 37.577 29.9918C36.6363 29.6475 35.654 30.3279 35.6373 31.3525C35.6207 32.041 35.6373 32.7295 35.629 33.418C35.629 33.7049 35.4292 33.9344 35.1711 34C34.8964 34.0656 34.5967 33.9508 34.4885 33.7049C34.4302 33.5656 34.4135 33.3934 34.4135 33.2377C34.4052 30.2951 34.4135 27.3525 34.4135 24.4016C34.4135 24.2951 34.4219 24.1967 34.4052 24.0902C34.3469 23.4836 34.0639 23.0328 33.4811 22.8033C32.94 22.5902 32.4405 22.6967 32.0076 23.0656C31.633 23.3852 31.5164 23.8115 31.5164 24.2869C31.5081 26.7131 31.4998 29.1311 31.4998 31.541Z" fill="black"/>
</g>
<circle cx="6.5" cy="36" r="5" stroke="black" stroke-width="3"/>
<circle cx="65.5" cy="36" r="5" stroke="black" stroke-width="3"/>
<circle cx="36" cy="65.5" r="5" transform="rotate(-90 36 65.5)" stroke="black" stroke-width="3"/>
<circle cx="36" cy="6.5" r="5" transform="rotate(-90 36 6.5)" stroke="black" stroke-width="3"/>
<circle cx="56.8594" cy="56.8596" r="5" transform="rotate(-135 56.8594 56.8596)" stroke="black" stroke-width="3"/>
<circle cx="15.1406" cy="15.1404" r="5" transform="rotate(-135 15.1406 15.1404)" stroke="black" stroke-width="3"/>
<circle cx="15.1406" cy="56.8596" r="5" transform="rotate(-45 15.1406 56.8596)" stroke="black" stroke-width="3"/>
<circle cx="56.8594" cy="15.1404" r="5" transform="rotate(-45 56.8594 15.1404)" stroke="black" stroke-width="3"/>
<defs>
<clipPath id="clip0_5_7">
<rect width="25" height="29" fill="white" transform="translate(23 21.5)"/>
</clipPath>
</defs>
</svg>
