<svg width="58" height="76" viewBox="0 0 58 76" fill="none" xmlns="http://www.w3.org/2000/svg">
<g clip-path="url(#clip0_3_24)">
<path d="M52.27 76C36.763 76 21.2559 76 5.74894 76C5.04923 75.7955 4.33062 75.6654 3.68764 75.3494C1.15357 74.1038 0 72.0216 0 69.2887C0 56.4795 0 43.6517 0 30.8425C0 28.9648 0.472775 28.5 2.34496 28.5C3.68764 28.5 5.04923 28.5 6.44865 28.5C6.44865 26.455 6.44865 24.503 6.44865 22.5509C6.44865 16.4902 8.45321 11.1546 12.7838 6.84152C18.703 0.948171 25.8891 -1.1712 34.1154 0.613534C44.0815 2.78868 51.3811 11.6008 51.5135 21.7329C51.5513 23.7036 51.5324 25.6928 51.5324 27.6634C51.5324 27.9237 51.5324 28.184 51.5324 28.5C53.102 28.5 54.5582 28.5 56.0143 28.5C57.3381 28.5 57.9811 29.1135 57.9811 30.3963C57.9811 43.4286 57.9811 56.4795 57.9811 69.5118C57.9811 71.6683 57.1679 73.5274 55.3335 74.7359C54.4447 75.3308 53.2912 75.591 52.27 76ZM41.8689 28.4814C41.8689 26.3249 41.8689 24.2241 41.8689 22.1233C41.85 19.2789 41.0179 16.6947 39.2025 14.4824C35.9498 10.4854 31.6759 8.79357 26.5699 9.7789C21.4072 10.7642 18.0222 13.9247 16.5849 18.9071C15.6961 21.9932 16.2256 25.2094 16.15 28.3513C16.15 28.3885 16.2067 28.4257 16.2445 28.4814C24.7545 28.4814 33.2455 28.4814 41.8689 28.4814ZM29.0095 63.3582C29.9928 63.3582 30.9762 63.3767 31.9596 63.3582C33.3212 63.321 33.9641 62.5587 33.8128 61.2388C33.5103 58.5431 33.1888 55.8288 32.9051 53.1331C32.8862 52.8728 33.0186 52.501 33.2077 52.3337C34.8529 50.8464 35.6094 49.0431 35.3825 46.8308C35.0231 43.1683 31.241 40.454 27.629 41.3464C25.076 41.9785 23.374 43.5587 22.7688 46.1057C22.1826 48.5411 22.9201 50.6419 24.8301 52.3337C25.0192 52.501 25.1516 52.8728 25.1327 53.1331C24.849 55.8288 24.5465 58.5431 24.225 61.2388C24.0737 62.5773 24.7167 63.321 26.0782 63.3582C27.0427 63.3767 28.0261 63.3582 29.0095 63.3582Z" fill="black"/>
</g>
<defs>
<clipPath id="clip0_3_24">
<rect width="58" height="76" fill="white"/>
</clipPath>
</defs>
</svg>
