<svg width="32" height="32" viewBox="0 0 32 32" fill="none" xmlns="http://www.w3.org/2000/svg">
<path d="M25.5083 0H6.49167C2.90833 0 0 2.90833 0 6.49167V25.5083C0 29.0917 2.90833 32 6.49167 32H25.5083C29.0917 32 32 29.0917 32 25.5083V6.49167C32 2.90833 29.0917 0 25.5083 0ZM26 19.95C25.9917 23.3667 23.375 25.9917 19.9667 25.9917C17.325 26 14.675 26 12.0333 25.9917C8.64167 25.9833 6.00833 23.3583 6 19.975C5.99167 17.3167 5.99167 14.6667 6 12.0083C6.00833 8.63333 8.63333 6.00833 12 5.99167C14.6667 5.98333 17.3333 5.98333 20 5.99167C23.35 6 25.9833 8.625 26 11.975C26.0083 13.3167 26 14.6583 26 16.0083C26 17.3333 26 18.6417 26 19.95Z" fill="white"/>
<path d="M23.9917 12.0667C23.9833 9.74166 22.2667 8.01666 19.95 8.00833C17.3167 7.99999 14.6833 7.99999 12.0417 8.00833C9.74166 8.01666 8.01666 9.74166 8.00833 12.0417C7.99999 14.675 7.99999 17.3083 8.00833 19.9417C8.00833 20.2417 8.03333 20.55 8.09999 20.8417C8.49166 22.6917 10.075 23.975 11.975 23.9833C14.6167 23.9917 17.2667 23.9833 19.9083 23.9833C22.2667 23.9833 23.9833 22.2667 23.9917 19.9C23.9917 18.6083 23.9917 17.3167 23.9917 16.025C23.9917 14.7083 23.9917 13.3833 23.9917 12.0667ZM16.0583 21.175C13.2167 21.2 10.8583 18.9083 10.825 16.0667C10.7917 13.2167 13.0917 10.8583 15.9583 10.825C18.8083 10.7917 21.15 13.1 21.1833 15.975C21.2083 18.7833 18.875 21.15 16.0583 21.175ZM21.2083 12.1083C20.5083 12.1083 19.9417 11.5333 19.9417 10.8333C19.9417 10.125 20.5 9.56666 21.2083 9.55833C21.9083 9.55833 22.475 10.125 22.4833 10.825C22.4833 11.5167 21.8917 12.1083 21.2083 12.1083Z" fill="white"/>
<path d="M19.1583 16C19.175 17.7166 17.775 19.1333 16.0333 19.1666C14.3 19.2 12.8667 17.7916 12.8333 16.0416C12.8 14.3083 14.2167 12.8666 15.9583 12.8416C17.7083 12.8166 19.1417 14.225 19.1583 16Z" fill="white"/>
</svg>
