<svg width="1321" height="305" viewBox="0 0 1321 305" fill="none" xmlns="http://www.w3.org/2000/svg">
<path d="M0 105C0 93.9543 8.9543 85 20 85H457V305H20C8.95431 305 0 296.046 0 285V105Z" fill="black"/>
<path d="M1321 285C1321 296.046 1312.05 305 1301 305L457 305L457 85L1301 85.0001C1312.05 85.0001 1321 93.9544 1321 105L1321 285Z" fill="#FFBD00"/>
<g clip-path="url(#clip0_3_61)">
<path d="M290 166.122L297.155 173.554L279.138 191.828L271.983 184.571L290 166.122Z" fill="white" stroke="white"/>
<path d="M300.862 177.139L308.017 184.571L279.138 213.861L271.983 206.604L300.862 177.139Z" fill="white" stroke="white"/>
<path d="M268.276 188.156L275.431 195.587L268.276 202.844L261.121 195.587L268.276 188.156Z" fill="white" stroke="white"/>
<path d="M311.724 188.156L318.879 195.587L290 224.878L282.845 217.621L311.724 188.156Z" fill="white" stroke="white"/>
</g>
<g clip-path="url(#clip1_3_61)">
<path fill-rule="evenodd" clip-rule="evenodd" d="M175.442 165.305L163.04 191.719C162.94 191.922 162.98 192.166 163.14 192.308L196.619 224.858C196.82 225.041 197.12 225.041 197.321 224.858L230.82 192.308C230.98 192.145 231.02 191.922 230.92 191.719L218.518 165.305C218.478 165.122 218.298 165 218.097 165H175.903C175.722 165 175.542 165.122 175.442 165.305Z" fill="white"/>
<path fill-rule="evenodd" clip-rule="evenodd" d="M201.308 194.421C201.067 194.441 199.825 194.522 197.06 194.522C194.856 194.522 193.293 194.462 192.732 194.421C184.217 194.035 177.866 192.531 177.866 190.743C177.866 188.955 184.217 187.452 192.732 187.045V192.917C193.293 192.958 194.876 193.06 197.08 193.06C199.725 193.06 201.047 192.938 201.288 192.917V187.045C209.783 187.431 216.134 188.935 216.134 190.723C216.134 192.511 209.803 194.035 201.308 194.421ZM201.308 186.456V181.194H213.169V173.168H180.872V181.194H192.732V186.456C183.095 186.903 175.843 188.833 175.843 191.17C175.843 193.507 183.095 195.417 192.732 195.884V212.728H201.308V195.884C210.925 195.437 218.157 193.507 218.157 191.19C218.157 188.874 210.925 186.903 201.308 186.456Z" fill="black"/>
</g>
<path d="M110.783 205.652L105.584 196.669H115.708L123.551 210.258C126.971 205.561 129 199.77 129 193.5C129 177.768 116.232 165 100.5 165C84.768 165 72 177.768 72 193.5C72 199.77 74.0292 205.561 77.4492 210.258L100.5 170.335L114.248 194.161H104.148L100.386 187.64L95.1876 196.669H102.712L107.91 205.652H89.9892L83.6964 216.528C88.416 219.971 94.2072 222 100.5 222C106.702 222 112.447 220.016 117.121 216.642L110.783 205.652Z" fill="white"/>
<rect x="351" y="196" width="30" height="7" fill="white"/>
<rect x="362.5" y="214.5" width="30" height="7" transform="rotate(-90 362.5 214.5)" fill="white"/>
<path d="M540.275 146.09L543.703 160.926L544.441 165.057L545.197 161.014L548.115 146.09H553.828L556.904 160.926L557.695 165.057L558.486 161.084L561.949 146.09H567.451L560.156 172H554.988L551.859 156.848L550.945 151.838L550.031 156.848L546.902 172H541.875L534.527 146.09H540.275ZM577.26 156.461C576.1 156.461 575.197 156.824 574.553 157.551C573.92 158.277 573.521 159.262 573.357 160.504H581.145C581.062 159.18 580.658 158.178 579.932 157.498C579.217 156.807 578.326 156.461 577.26 156.461ZM577.26 152.33C578.854 152.33 580.289 152.629 581.566 153.227C582.844 153.824 583.898 154.768 584.73 156.057C585.48 157.193 585.967 158.512 586.189 160.012C586.318 160.891 586.371 162.156 586.348 163.809H573.234C573.305 165.73 573.908 167.078 575.045 167.852C575.736 168.332 576.568 168.572 577.541 168.572C578.572 168.572 579.41 168.279 580.055 167.693C580.406 167.377 580.717 166.938 580.986 166.375H586.102C585.973 167.512 585.381 168.666 584.326 169.838C582.686 171.701 580.389 172.633 577.436 172.633C574.998 172.633 572.848 171.848 570.984 170.277C569.121 168.707 568.189 166.152 568.189 162.613C568.189 159.297 569.027 156.754 570.703 154.984C572.391 153.215 574.576 152.33 577.26 152.33ZM606.826 152.383C607.986 152.383 609.018 152.641 609.92 153.156C610.822 153.66 611.555 154.363 612.117 155.266V146.125H617.197V172H612.328V169.346C611.613 170.482 610.799 171.309 609.885 171.824C608.971 172.34 607.834 172.598 606.475 172.598C604.236 172.598 602.35 171.695 600.814 169.891C599.291 168.074 598.529 165.748 598.529 162.912C598.529 159.643 599.279 157.07 600.779 155.195C602.291 153.32 604.307 152.383 606.826 152.383ZM607.916 168.379C609.334 168.379 610.412 167.852 611.15 166.797C611.889 165.742 612.258 164.377 612.258 162.701C612.258 160.357 611.666 158.682 610.482 157.674C609.756 157.064 608.912 156.76 607.951 156.76C606.486 156.76 605.408 157.316 604.717 158.43C604.037 159.531 603.697 160.902 603.697 162.543C603.697 164.312 604.043 165.73 604.734 166.797C605.438 167.852 606.498 168.379 607.916 168.379ZM630.363 168.467C631.828 168.467 632.953 167.945 633.738 166.902C634.523 165.859 634.916 164.377 634.916 162.455C634.916 160.533 634.523 159.057 633.738 158.025C632.953 156.982 631.828 156.461 630.363 156.461C628.898 156.461 627.768 156.982 626.971 158.025C626.186 159.057 625.793 160.533 625.793 162.455C625.793 164.377 626.186 165.859 626.971 166.902C627.768 167.945 628.898 168.467 630.363 168.467ZM640.172 162.455C640.172 165.268 639.363 167.676 637.746 169.68C636.129 171.672 633.674 172.668 630.381 172.668C627.088 172.668 624.633 171.672 623.016 169.68C621.398 167.676 620.59 165.268 620.59 162.455C620.59 159.689 621.398 157.293 623.016 155.266C624.633 153.238 627.088 152.225 630.381 152.225C633.674 152.225 636.129 153.238 637.746 155.266C639.363 157.293 640.172 159.689 640.172 162.455ZM664.359 162.684C664.043 162.883 663.721 163.047 663.393 163.176C663.076 163.293 662.637 163.404 662.074 163.51L660.949 163.721C659.895 163.908 659.139 164.137 658.682 164.406C657.908 164.863 657.521 165.572 657.521 166.533C657.521 167.389 657.756 168.01 658.225 168.396C658.705 168.771 659.285 168.959 659.965 168.959C661.043 168.959 662.033 168.643 662.936 168.01C663.85 167.377 664.324 166.223 664.359 164.547V162.684ZM661.318 160.346C662.244 160.229 662.906 160.082 663.305 159.906C664.02 159.602 664.377 159.127 664.377 158.482C664.377 157.697 664.102 157.158 663.551 156.865C663.012 156.561 662.215 156.408 661.16 156.408C659.977 156.408 659.139 156.701 658.646 157.287C658.295 157.721 658.061 158.307 657.943 159.045H653.109C653.215 157.369 653.684 155.992 654.516 154.914C655.84 153.227 658.113 152.383 661.336 152.383C663.434 152.383 665.297 152.799 666.926 153.631C668.555 154.463 669.369 156.033 669.369 158.342V167.131C669.369 167.74 669.381 168.479 669.404 169.346C669.439 170.002 669.539 170.447 669.703 170.682C669.867 170.916 670.113 171.109 670.441 171.262V172H664.992C664.84 171.613 664.734 171.25 664.676 170.91C664.617 170.57 664.57 170.184 664.535 169.75C663.844 170.5 663.047 171.139 662.145 171.666C661.066 172.287 659.848 172.598 658.488 172.598C656.754 172.598 655.318 172.105 654.182 171.121C653.057 170.125 652.494 168.719 652.494 166.902C652.494 164.547 653.402 162.842 655.219 161.787C656.215 161.213 657.68 160.803 659.613 160.557L661.318 160.346ZM685.277 159.713C685.184 158.998 684.943 158.354 684.557 157.779C683.994 157.006 683.121 156.619 681.938 156.619C680.25 156.619 679.096 157.457 678.475 159.133C678.146 160.023 677.982 161.207 677.982 162.684C677.982 164.09 678.146 165.221 678.475 166.076C679.072 167.67 680.197 168.467 681.85 168.467C683.021 168.467 683.854 168.15 684.346 167.518C684.838 166.885 685.137 166.064 685.242 165.057H690.357C690.24 166.58 689.689 168.021 688.705 169.381C687.135 171.572 684.809 172.668 681.727 172.668C678.645 172.668 676.377 171.754 674.924 169.926C673.471 168.098 672.744 165.725 672.744 162.807C672.744 159.514 673.547 156.953 675.152 155.125C676.758 153.297 678.973 152.383 681.797 152.383C684.199 152.383 686.162 152.922 687.686 154C689.221 155.078 690.129 156.982 690.41 159.713H685.277ZM705.316 159.713C705.223 158.998 704.982 158.354 704.596 157.779C704.033 157.006 703.16 156.619 701.977 156.619C700.289 156.619 699.135 157.457 698.514 159.133C698.186 160.023 698.021 161.207 698.021 162.684C698.021 164.09 698.186 165.221 698.514 166.076C699.111 167.67 700.236 168.467 701.889 168.467C703.061 168.467 703.893 168.15 704.385 167.518C704.877 166.885 705.176 166.064 705.281 165.057H710.396C710.279 166.58 709.729 168.021 708.744 169.381C707.174 171.572 704.848 172.668 701.766 172.668C698.684 172.668 696.416 171.754 694.963 169.926C693.51 168.098 692.783 165.725 692.783 162.807C692.783 159.514 693.586 156.953 695.191 155.125C696.797 153.297 699.012 152.383 701.836 152.383C704.238 152.383 706.201 152.922 707.725 154C709.26 155.078 710.168 156.982 710.449 159.713H705.316ZM721.471 156.461C720.311 156.461 719.408 156.824 718.764 157.551C718.131 158.277 717.732 159.262 717.568 160.504H725.355C725.273 159.18 724.869 158.178 724.143 157.498C723.428 156.807 722.537 156.461 721.471 156.461ZM721.471 152.33C723.064 152.33 724.5 152.629 725.777 153.227C727.055 153.824 728.109 154.768 728.941 156.057C729.691 157.193 730.178 158.512 730.4 160.012C730.529 160.891 730.582 162.156 730.559 163.809H717.445C717.516 165.73 718.119 167.078 719.256 167.852C719.947 168.332 720.779 168.572 721.752 168.572C722.783 168.572 723.621 168.279 724.266 167.693C724.617 167.377 724.928 166.938 725.197 166.375H730.312C730.184 167.512 729.592 168.666 728.537 169.838C726.896 171.701 724.6 172.633 721.646 172.633C719.209 172.633 717.059 171.848 715.195 170.277C713.332 168.707 712.4 166.152 712.4 162.613C712.4 159.297 713.238 156.754 714.914 154.984C716.602 153.215 718.787 152.33 721.471 152.33ZM747.152 162.42C747.152 160.943 746.812 159.637 746.133 158.5C745.465 157.363 744.375 156.795 742.863 156.795C741.047 156.795 739.799 157.656 739.119 159.379C738.768 160.293 738.592 161.453 738.592 162.859C738.592 165.086 739.184 166.65 740.367 167.553C741.07 168.08 741.902 168.344 742.863 168.344C744.258 168.344 745.318 167.805 746.045 166.727C746.783 165.648 747.152 164.213 747.152 162.42ZM744.305 152.418C746.543 152.418 748.436 153.244 749.982 154.896C751.541 156.549 752.32 158.975 752.32 162.174C752.32 165.549 751.559 168.121 750.035 169.891C748.523 171.66 746.572 172.545 744.182 172.545C742.658 172.545 741.393 172.164 740.385 171.402C739.834 170.98 739.295 170.365 738.768 169.557V179.541H733.811V152.84H738.609V155.67C739.148 154.838 739.723 154.182 740.332 153.701C741.445 152.846 742.77 152.418 744.305 152.418ZM753.99 156.584V153.016H756.662V147.672H761.619V153.016H764.73V156.584H761.619V166.709C761.619 167.494 761.719 167.986 761.918 168.186C762.117 168.373 762.727 168.467 763.746 168.467C763.898 168.467 764.057 168.467 764.221 168.467C764.396 168.455 764.566 168.443 764.73 168.432V172.176L762.357 172.264C759.99 172.346 758.373 171.936 757.506 171.033C756.943 170.459 756.662 169.574 756.662 168.379V156.584H753.99ZM786.562 168.467C788.027 168.467 789.152 167.945 789.938 166.902C790.723 165.859 791.115 164.377 791.115 162.455C791.115 160.533 790.723 159.057 789.938 158.025C789.152 156.982 788.027 156.461 786.562 156.461C785.098 156.461 783.967 156.982 783.17 158.025C782.385 159.057 781.992 160.533 781.992 162.455C781.992 164.377 782.385 165.859 783.17 166.902C783.967 167.945 785.098 168.467 786.562 168.467ZM796.371 162.455C796.371 165.268 795.562 167.676 793.945 169.68C792.328 171.672 789.873 172.668 786.58 172.668C783.287 172.668 780.832 171.672 779.215 169.68C777.598 167.676 776.789 165.268 776.789 162.455C776.789 159.689 777.598 157.293 779.215 155.266C780.832 153.238 783.287 152.225 786.58 152.225C789.873 152.225 792.328 153.238 793.945 155.266C795.562 157.293 796.371 159.689 796.371 162.455ZM810.592 152.383C812.572 152.383 814.189 152.904 815.443 153.947C816.709 154.979 817.342 156.695 817.342 159.098V172H812.209V160.346C812.209 159.338 812.074 158.564 811.805 158.025C811.312 157.041 810.375 156.549 808.992 156.549C807.293 156.549 806.127 157.27 805.494 158.711C805.166 159.473 805.002 160.445 805.002 161.629V172H800.01V152.875H804.844V155.67C805.488 154.686 806.098 153.977 806.672 153.543C807.703 152.77 809.01 152.383 810.592 152.383ZM827.098 172H822.088V146.09H827.098V172ZM832.775 175.674L833.408 175.709C833.9 175.732 834.369 175.715 834.814 175.656C835.26 175.598 835.635 175.463 835.939 175.252C836.232 175.053 836.502 174.637 836.748 174.004C837.006 173.371 837.111 172.984 837.064 172.844L830.033 152.84H835.605L839.789 166.973L843.744 152.84H849.07L842.496 171.684C841.23 175.316 840.229 177.566 839.49 178.434C838.752 179.312 837.275 179.752 835.061 179.752C834.615 179.752 834.258 179.746 833.988 179.734C833.719 179.734 833.314 179.717 832.775 179.682V175.674ZM547.781 195.713C547.688 194.998 547.447 194.354 547.061 193.779C546.498 193.006 545.625 192.619 544.441 192.619C542.754 192.619 541.6 193.457 540.979 195.133C540.65 196.023 540.486 197.207 540.486 198.684C540.486 200.09 540.65 201.221 540.979 202.076C541.576 203.67 542.701 204.467 544.354 204.467C545.525 204.467 546.357 204.15 546.85 203.518C547.342 202.885 547.641 202.064 547.746 201.057H552.861C552.744 202.58 552.193 204.021 551.209 205.381C549.639 207.572 547.312 208.668 544.23 208.668C541.148 208.668 538.881 207.754 537.428 205.926C535.975 204.098 535.248 201.725 535.248 198.807C535.248 195.514 536.051 192.953 537.656 191.125C539.262 189.297 541.477 188.383 544.301 188.383C546.703 188.383 548.666 188.922 550.189 190C551.725 191.078 552.633 192.982 552.914 195.713H547.781ZM566.783 188.383C566.877 188.383 566.953 188.389 567.012 188.4C567.082 188.4 567.229 188.406 567.451 188.418V193.551C567.135 193.516 566.854 193.492 566.607 193.48C566.361 193.469 566.162 193.463 566.01 193.463C563.994 193.463 562.641 194.119 561.949 195.432C561.562 196.17 561.369 197.307 561.369 198.842V208H556.324V188.84H561.105V192.18C561.879 190.902 562.553 190.029 563.127 189.561C564.064 188.775 565.283 188.383 566.783 188.383ZM571.178 211.674L571.811 211.709C572.303 211.732 572.771 211.715 573.217 211.656C573.662 211.598 574.037 211.463 574.342 211.252C574.635 211.053 574.904 210.637 575.15 210.004C575.408 209.371 575.514 208.984 575.467 208.844L568.436 188.84H574.008L578.191 202.973L582.146 188.84H587.473L580.898 207.684C579.633 211.316 578.631 213.566 577.893 214.434C577.154 215.312 575.678 215.752 573.463 215.752C573.018 215.752 572.66 215.746 572.391 215.734C572.121 215.734 571.717 215.717 571.178 215.682V211.674ZM603.645 198.42C603.645 196.943 603.305 195.637 602.625 194.5C601.957 193.363 600.867 192.795 599.355 192.795C597.539 192.795 596.291 193.656 595.611 195.379C595.26 196.293 595.084 197.453 595.084 198.859C595.084 201.086 595.676 202.65 596.859 203.553C597.562 204.08 598.395 204.344 599.355 204.344C600.75 204.344 601.811 203.805 602.537 202.727C603.275 201.648 603.645 200.213 603.645 198.42ZM600.797 188.418C603.035 188.418 604.928 189.244 606.475 190.896C608.033 192.549 608.812 194.975 608.812 198.174C608.812 201.549 608.051 204.121 606.527 205.891C605.016 207.66 603.064 208.545 600.674 208.545C599.15 208.545 597.885 208.164 596.877 207.402C596.326 206.98 595.787 206.365 595.26 205.557V215.541H590.303V188.84H595.102V191.67C595.641 190.838 596.215 190.182 596.824 189.701C597.938 188.846 599.262 188.418 600.797 188.418ZM610.482 192.584V189.016H613.154V183.672H618.111V189.016H621.223V192.584H618.111V202.709C618.111 203.494 618.211 203.986 618.41 204.186C618.609 204.373 619.219 204.467 620.238 204.467C620.391 204.467 620.549 204.467 620.713 204.467C620.889 204.455 621.059 204.443 621.223 204.432V208.176L618.85 208.264C616.482 208.346 614.865 207.936 613.998 207.033C613.436 206.459 613.154 205.574 613.154 204.379V192.584H610.482ZM633.035 204.467C634.5 204.467 635.625 203.945 636.41 202.902C637.195 201.859 637.588 200.377 637.588 198.455C637.588 196.533 637.195 195.057 636.41 194.025C635.625 192.982 634.5 192.461 633.035 192.461C631.57 192.461 630.439 192.982 629.643 194.025C628.857 195.057 628.465 196.533 628.465 198.455C628.465 200.377 628.857 201.859 629.643 202.902C630.439 203.945 631.57 204.467 633.035 204.467ZM642.844 198.455C642.844 201.268 642.035 203.676 640.418 205.68C638.801 207.672 636.346 208.668 633.053 208.668C629.76 208.668 627.305 207.672 625.688 205.68C624.07 203.676 623.262 201.268 623.262 198.455C623.262 195.689 624.07 193.293 625.688 191.266C627.305 189.238 629.76 188.225 633.053 188.225C636.346 188.225 638.801 189.238 640.418 191.266C642.035 193.293 642.844 195.689 642.844 198.455ZM657.891 195.713C657.797 194.998 657.557 194.354 657.17 193.779C656.607 193.006 655.734 192.619 654.551 192.619C652.863 192.619 651.709 193.457 651.088 195.133C650.76 196.023 650.596 197.207 650.596 198.684C650.596 200.09 650.76 201.221 651.088 202.076C651.686 203.67 652.811 204.467 654.463 204.467C655.635 204.467 656.467 204.15 656.959 203.518C657.451 202.885 657.75 202.064 657.855 201.057H662.971C662.854 202.58 662.303 204.021 661.318 205.381C659.748 207.572 657.422 208.668 654.34 208.668C651.258 208.668 648.99 207.754 647.537 205.926C646.084 204.098 645.357 201.725 645.357 198.807C645.357 195.514 646.16 192.953 647.766 191.125C649.371 189.297 651.586 188.383 654.41 188.383C656.812 188.383 658.775 188.922 660.299 190C661.834 191.078 662.742 192.982 663.023 195.713H657.891ZM671.479 188.84V200.389C671.479 201.479 671.607 202.299 671.865 202.85C672.322 203.822 673.219 204.309 674.555 204.309C676.266 204.309 677.438 203.617 678.07 202.234C678.398 201.484 678.562 200.494 678.562 199.264V188.84H683.643V208H678.773V205.293C678.727 205.352 678.609 205.527 678.422 205.82C678.234 206.113 678.012 206.371 677.754 206.594C676.969 207.297 676.207 207.777 675.469 208.035C674.742 208.293 673.887 208.422 672.902 208.422C670.066 208.422 668.156 207.402 667.172 205.363C666.621 204.238 666.346 202.58 666.346 200.389V188.84H671.479ZM698.9 188.383C698.994 188.383 699.07 188.389 699.129 188.4C699.199 188.4 699.346 188.406 699.568 188.418V193.551C699.252 193.516 698.971 193.492 698.725 193.48C698.479 193.469 698.279 193.463 698.127 193.463C696.111 193.463 694.758 194.119 694.066 195.432C693.68 196.17 693.486 197.307 693.486 198.842V208H688.441V188.84H693.223V192.18C693.996 190.902 694.67 190.029 695.244 189.561C696.182 188.775 697.4 188.383 698.9 188.383ZM712.928 188.383C713.021 188.383 713.098 188.389 713.156 188.4C713.227 188.4 713.373 188.406 713.596 188.418V193.551C713.279 193.516 712.998 193.492 712.752 193.48C712.506 193.469 712.307 193.463 712.154 193.463C710.139 193.463 708.785 194.119 708.094 195.432C707.707 196.17 707.514 197.307 707.514 198.842V208H702.469V188.84H707.25V192.18C708.023 190.902 708.697 190.029 709.271 189.561C710.209 188.775 711.428 188.383 712.928 188.383ZM724.107 192.461C722.947 192.461 722.045 192.824 721.4 193.551C720.768 194.277 720.369 195.262 720.205 196.504H727.992C727.91 195.18 727.506 194.178 726.779 193.498C726.064 192.807 725.174 192.461 724.107 192.461ZM724.107 188.33C725.701 188.33 727.137 188.629 728.414 189.227C729.691 189.824 730.746 190.768 731.578 192.057C732.328 193.193 732.814 194.512 733.037 196.012C733.166 196.891 733.219 198.156 733.195 199.809H720.082C720.152 201.73 720.756 203.078 721.893 203.852C722.584 204.332 723.416 204.572 724.389 204.572C725.42 204.572 726.258 204.279 726.902 203.693C727.254 203.377 727.564 202.938 727.834 202.375H732.949C732.82 203.512 732.229 204.666 731.174 205.838C729.533 207.701 727.236 208.633 724.283 208.633C721.846 208.633 719.695 207.848 717.832 206.277C715.969 204.707 715.037 202.152 715.037 198.613C715.037 195.297 715.875 192.754 717.551 190.984C719.238 189.215 721.424 188.33 724.107 188.33ZM747.205 188.383C749.186 188.383 750.803 188.904 752.057 189.947C753.322 190.979 753.955 192.695 753.955 195.098V208H748.822V196.346C748.822 195.338 748.688 194.564 748.418 194.025C747.926 193.041 746.988 192.549 745.605 192.549C743.906 192.549 742.74 193.27 742.107 194.711C741.779 195.473 741.615 196.445 741.615 197.629V208H736.623V188.875H741.457V191.67C742.102 190.686 742.711 189.977 743.285 189.543C744.316 188.77 745.623 188.383 747.205 188.383ZM770.039 195.713C769.945 194.998 769.705 194.354 769.318 193.779C768.756 193.006 767.883 192.619 766.699 192.619C765.012 192.619 763.857 193.457 763.236 195.133C762.908 196.023 762.744 197.207 762.744 198.684C762.744 200.09 762.908 201.221 763.236 202.076C763.834 203.67 764.959 204.467 766.611 204.467C767.783 204.467 768.615 204.15 769.107 203.518C769.6 202.885 769.898 202.064 770.004 201.057H775.119C775.002 202.58 774.451 204.021 773.467 205.381C771.896 207.572 769.57 208.668 766.488 208.668C763.406 208.668 761.139 207.754 759.686 205.926C758.232 204.098 757.506 201.725 757.506 198.807C757.506 195.514 758.309 192.953 759.914 191.125C761.52 189.297 763.734 188.383 766.559 188.383C768.961 188.383 770.924 188.922 772.447 190C773.982 191.078 774.891 192.982 775.172 195.713H770.039ZM779.408 211.674L780.041 211.709C780.533 211.732 781.002 211.715 781.447 211.656C781.893 211.598 782.268 211.463 782.572 211.252C782.865 211.053 783.135 210.637 783.381 210.004C783.639 209.371 783.744 208.984 783.697 208.844L776.666 188.84H782.238L786.422 202.973L790.377 188.84H795.703L789.129 207.684C787.863 211.316 786.861 213.566 786.123 214.434C785.385 215.312 783.908 215.752 781.693 215.752C781.248 215.752 780.891 215.746 780.621 215.734C780.352 215.734 779.947 215.717 779.408 215.682V211.674ZM795.914 202.762H801.24V208H795.914V202.762ZM541.998 222.59V228.303H548.361C549.498 228.303 550.418 228.092 551.121 227.67C551.836 227.236 552.193 226.475 552.193 225.385C552.193 224.178 551.725 223.381 550.787 222.994C549.979 222.725 548.947 222.59 547.693 222.59H541.998ZM541.998 232.592V239.5H548.361C549.498 239.5 550.383 239.348 551.016 239.043C552.164 238.48 552.738 237.402 552.738 235.809C552.738 234.461 552.182 233.535 551.068 233.031C550.447 232.75 549.574 232.604 548.449 232.592H541.998ZM549.416 218.09C552.592 218.137 554.842 219.057 556.166 220.85C556.963 221.951 557.361 223.27 557.361 224.805C557.361 226.387 556.963 227.658 556.166 228.619C555.721 229.158 555.064 229.65 554.197 230.096C555.521 230.576 556.518 231.338 557.186 232.381C557.865 233.424 558.205 234.689 558.205 236.178C558.205 237.713 557.818 239.09 557.045 240.309C556.553 241.117 555.938 241.797 555.199 242.348C554.367 242.98 553.383 243.414 552.246 243.648C551.121 243.883 549.896 244 548.572 244H536.83V218.09H549.416ZM570.949 240.467C572.414 240.467 573.539 239.945 574.324 238.902C575.109 237.859 575.502 236.377 575.502 234.455C575.502 232.533 575.109 231.057 574.324 230.025C573.539 228.982 572.414 228.461 570.949 228.461C569.484 228.461 568.354 228.982 567.557 230.025C566.771 231.057 566.379 232.533 566.379 234.455C566.379 236.377 566.771 237.859 567.557 238.902C568.354 239.945 569.484 240.467 570.949 240.467ZM580.758 234.455C580.758 237.268 579.949 239.676 578.332 241.68C576.715 243.672 574.26 244.668 570.967 244.668C567.674 244.668 565.219 243.672 563.602 241.68C561.984 239.676 561.176 237.268 561.176 234.455C561.176 231.689 561.984 229.293 563.602 227.266C565.219 225.238 567.674 224.225 570.967 224.225C574.26 224.225 576.715 225.238 578.332 227.266C579.949 229.293 580.758 231.689 580.758 234.455ZM594.979 224.383C596.959 224.383 598.576 224.904 599.83 225.947C601.096 226.979 601.729 228.695 601.729 231.098V244H596.596V232.346C596.596 231.338 596.461 230.564 596.191 230.025C595.699 229.041 594.762 228.549 593.379 228.549C591.68 228.549 590.514 229.27 589.881 230.711C589.553 231.473 589.389 232.445 589.389 233.629V244H584.396V224.875H589.23V227.67C589.875 226.686 590.484 225.977 591.059 225.543C592.09 224.77 593.396 224.383 594.979 224.383ZM631.963 218.09H637.588L628.746 244H623.631L614.877 218.09H620.66L626.285 237.76L631.963 218.09ZM646.324 240.467C647.789 240.467 648.914 239.945 649.699 238.902C650.484 237.859 650.877 236.377 650.877 234.455C650.877 232.533 650.484 231.057 649.699 230.025C648.914 228.982 647.789 228.461 646.324 228.461C644.859 228.461 643.729 228.982 642.932 230.025C642.146 231.057 641.754 232.533 641.754 234.455C641.754 236.377 642.146 237.859 642.932 238.902C643.729 239.945 644.859 240.467 646.324 240.467ZM656.133 234.455C656.133 237.268 655.324 239.676 653.707 241.68C652.09 243.672 649.635 244.668 646.342 244.668C643.049 244.668 640.594 243.672 638.977 241.68C637.359 239.676 636.551 237.268 636.551 234.455C636.551 231.689 637.359 229.293 638.977 227.266C640.594 225.238 643.049 224.225 646.342 224.225C649.635 224.225 652.09 225.238 653.707 227.266C655.324 229.293 656.133 231.689 656.133 234.455ZM660.51 247.674L661.143 247.709C661.635 247.732 662.104 247.715 662.549 247.656C662.994 247.598 663.369 247.463 663.674 247.252C663.967 247.053 664.236 246.637 664.482 246.004C664.74 245.371 664.846 244.984 664.799 244.844L657.768 224.84H663.34L667.523 238.973L671.479 224.84H676.805L670.23 243.684C668.965 247.316 667.963 249.566 667.225 250.434C666.486 251.312 665.01 251.752 662.795 251.752C662.35 251.752 661.992 251.746 661.723 251.734C661.453 251.734 661.049 251.717 660.51 251.682V247.674ZM690.34 234.684C690.023 234.883 689.701 235.047 689.373 235.176C689.057 235.293 688.617 235.404 688.055 235.51L686.93 235.721C685.875 235.908 685.119 236.137 684.662 236.406C683.889 236.863 683.502 237.572 683.502 238.533C683.502 239.389 683.736 240.01 684.205 240.396C684.686 240.771 685.266 240.959 685.945 240.959C687.023 240.959 688.014 240.643 688.916 240.01C689.83 239.377 690.305 238.223 690.34 236.547V234.684ZM687.299 232.346C688.225 232.229 688.887 232.082 689.285 231.906C690 231.602 690.357 231.127 690.357 230.482C690.357 229.697 690.082 229.158 689.531 228.865C688.992 228.561 688.195 228.408 687.141 228.408C685.957 228.408 685.119 228.701 684.627 229.287C684.275 229.721 684.041 230.307 683.924 231.045H679.09C679.195 229.369 679.664 227.992 680.496 226.914C681.82 225.227 684.094 224.383 687.316 224.383C689.414 224.383 691.277 224.799 692.906 225.631C694.535 226.463 695.35 228.033 695.35 230.342V239.131C695.35 239.74 695.361 240.479 695.385 241.346C695.42 242.002 695.52 242.447 695.684 242.682C695.848 242.916 696.094 243.109 696.422 243.262V244H690.973C690.82 243.613 690.715 243.25 690.656 242.91C690.598 242.57 690.551 242.184 690.516 241.75C689.824 242.5 689.027 243.139 688.125 243.666C687.047 244.287 685.828 244.598 684.469 244.598C682.734 244.598 681.299 244.105 680.162 243.121C679.037 242.125 678.475 240.719 678.475 238.902C678.475 236.547 679.383 234.842 681.199 233.787C682.195 233.213 683.66 232.803 685.594 232.557L687.299 232.346ZM708.041 239.887C709.213 239.887 710.203 239.447 711.012 238.568C711.82 237.678 712.225 236.266 712.225 234.332C712.225 232.516 711.838 231.133 711.064 230.184C710.303 229.234 709.277 228.76 707.988 228.76C706.23 228.76 705.018 229.586 704.35 231.238C703.998 232.117 703.822 233.201 703.822 234.49C703.822 235.604 704.01 236.594 704.385 237.461C705.064 239.078 706.283 239.887 708.041 239.887ZM706.793 224.383C707.754 224.383 708.592 224.529 709.307 224.822C710.525 225.326 711.51 226.252 712.26 227.6V224.84H717.129V243.016C717.129 245.488 716.713 247.352 715.881 248.605C714.451 250.762 711.709 251.84 707.654 251.84C705.205 251.84 703.207 251.359 701.66 250.398C700.113 249.438 699.258 248.002 699.094 246.092H704.543C704.684 246.678 704.912 247.1 705.229 247.357C705.768 247.814 706.676 248.043 707.953 248.043C709.758 248.043 710.965 247.439 711.574 246.232C711.973 245.459 712.172 244.158 712.172 242.33V241.1C711.691 241.92 711.176 242.535 710.625 242.945C709.629 243.707 708.334 244.088 706.74 244.088C704.279 244.088 702.311 243.227 700.834 241.504C699.369 239.77 698.637 237.426 698.637 234.473C698.637 231.625 699.346 229.234 700.764 227.301C702.182 225.355 704.191 224.383 706.793 224.383ZM729.381 228.461C728.221 228.461 727.318 228.824 726.674 229.551C726.041 230.277 725.643 231.262 725.479 232.504H733.266C733.184 231.18 732.779 230.178 732.053 229.498C731.338 228.807 730.447 228.461 729.381 228.461ZM729.381 224.33C730.975 224.33 732.41 224.629 733.688 225.227C734.965 225.824 736.02 226.768 736.852 228.057C737.602 229.193 738.088 230.512 738.311 232.012C738.439 232.891 738.492 234.156 738.469 235.809H725.355C725.426 237.73 726.029 239.078 727.166 239.852C727.857 240.332 728.689 240.572 729.662 240.572C730.693 240.572 731.531 240.279 732.176 239.693C732.527 239.377 732.838 238.938 733.107 238.375H738.223C738.094 239.512 737.502 240.666 736.447 241.838C734.807 243.701 732.51 244.633 729.557 244.633C727.119 244.633 724.969 243.848 723.105 242.277C721.242 240.707 720.311 238.152 720.311 234.613C720.311 231.297 721.148 228.754 722.824 226.984C724.512 225.215 726.697 224.33 729.381 224.33ZM741.773 238.762H747.1V244H741.773V238.762ZM751.793 238.762H757.119V244H751.793V238.762ZM761.812 238.762H767.139V244H761.812V238.762Z" fill="black"/>
<g clip-path="url(#clip2_3_61)">
<path d="M997.98 105.093C995.88 105.093 994.62 105.093 993.36 105.093C993.36 104.673 992.94 103.832 992.94 103.412C992.94 79.4505 992.52 55.9096 992.94 31.9484C992.94 20.1779 999.66 12.1908 1010.16 7.56671C1011.84 6.72597 1013.1 5.04448 1014.78 3.78336C1016.88 2.52224 1018.98 0.420373 1020.66 0.420373C1029.48 0 1038.3 0 1046.7 0C1048.38 0 1051.32 1.26112 1051.74 2.52224C1053 6.3056 1056.36 7.14634 1059.3 8.40746C1069.38 13.0316 1074.84 21.439 1074.84 32.3687C1075.26 56.33 1074.84 79.8709 1074.84 103.832C1074.84 104.253 1074.42 104.253 1074.42 105.093C1073.16 105.093 1071.48 105.093 1069.8 105.514C1069.8 103.412 1069.38 101.73 1069.38 100.049C1069.38 78.1894 1069.38 56.33 1069.38 34.0502C1069.38 25.6428 1066.02 18.9168 1058.88 14.7131C1055.94 13.0316 1051.74 12.6112 1047.96 12.6112C1038.3 12.1908 1028.64 13.4519 1019.4 12.1908C1011.84 11.3501 1006.8 14.2927 1003.02 19.3372C1000.5 23.9613 998.4 29.4261 997.98 34.891C997.56 56.33 997.56 78.1894 997.56 99.6284C997.98 101.31 997.98 102.991 997.98 105.093Z" fill="black"/>
<path d="M1065.6 104.253C1044.18 104.253 1023.18 104.253 1001.76 104.253C1023.18 94.5839 1044.6 94.5839 1065.6 104.253Z" fill="black"/>
<path d="M1098.36 135.36C1098.36 118.125 1088.7 107.616 1071.48 107.616C1046.28 107.616 1021.08 107.616 996.3 107.616C992.1 107.616 987.48 108.036 983.7 109.717C973.2 114.341 969 122.749 969 134.099C969 175.296 969.42 216.072 969 257.268C969 270.3 973.2 279.548 984.96 285.433C986.22 288.376 987.48 291.739 990 292.58C994.2 294.261 996.3 292.159 998.4 286.274C1021.92 286.274 1045.44 286.274 1069.38 286.274C1069.38 286.694 1069.8 287.115 1069.8 287.956C1070.22 292.159 1073.16 293.42 1076.94 293C1080.72 292.58 1081.98 290.478 1081.98 287.115C1081.98 285.854 1083.66 284.593 1084.5 283.752C1093.32 278.707 1097.94 271.561 1097.94 261.472C1097.94 256.428 1097.94 251.803 1097.94 246.759C1098.36 209.346 1098.36 172.353 1098.36 135.36ZM997.98 269.459C997.98 271.561 996.3 272.822 994.62 272.822C992.52 272.822 991.26 271.141 991.26 269.459V127.793C991.26 125.692 992.94 124.43 994.62 124.43C996.72 124.43 997.98 126.112 997.98 127.793V269.459ZM1024.02 269.459C1024.02 271.561 1022.34 272.822 1020.66 272.822C1018.98 272.822 1017.3 271.141 1017.3 269.459V127.793C1017.3 125.692 1018.98 124.43 1020.66 124.43C1022.34 124.43 1024.02 126.112 1024.02 127.793V269.459ZM1050.48 269.459C1050.48 271.561 1048.8 272.822 1047.12 272.822C1045.02 272.822 1043.76 271.141 1043.76 269.459V127.793C1043.76 125.692 1045.44 124.43 1047.12 124.43C1049.22 124.43 1050.48 126.112 1050.48 127.793V269.459ZM1076.52 269.459C1076.52 271.561 1074.84 272.822 1073.16 272.822C1071.06 272.822 1069.8 271.141 1069.8 269.459V127.793C1069.8 125.692 1071.48 124.43 1073.16 124.43C1075.26 124.43 1076.52 126.112 1076.52 127.793V269.459Z" fill="black"/>
<path d="M1305 173.614C1305 161.003 1296.18 152.175 1283.16 152.175C1270.56 152.175 1258.38 152.175 1245.78 152.175C1244.1 152.175 1242.42 152.175 1239.9 152.175C1239.9 148.392 1239.9 145.029 1239.9 142.086C1239.48 136.201 1235.7 132.418 1229.82 132.418C1213.02 132.418 1195.8 132.418 1179 132.418C1172.7 132.418 1168.92 136.621 1168.92 142.927C1168.92 145.869 1168.92 148.812 1168.92 152.175C1166.82 152.175 1165.14 152.175 1163.46 152.175C1150.86 152.175 1138.68 152.175 1126.08 152.175C1112.64 152.175 1104.24 160.583 1104.24 174.034C1104.24 206.403 1104.24 238.352 1104.24 270.72C1104.24 284.172 1112.64 292.58 1125.66 292.58C1177.74 292.58 1230.24 292.58 1282.32 292.58C1295.76 292.58 1304.16 284.172 1304.16 271.141C1305 238.772 1305 206.403 1305 173.614ZM1134.06 286.274H1130.7V192.11H1112.22V188.748H1130.7V183.703H1112.22V180.34H1130.7V163.525H1134.06V286.274ZM1142.88 286.274H1139.52V163.525H1142.88V286.274ZM1233.18 152.175C1214.28 152.175 1195.38 152.175 1176.48 152.175C1175.64 136.621 1176.9 139.564 1187.82 139.564C1200.84 139.564 1213.44 139.564 1226.46 139.564C1233.6 139.564 1233.6 139.564 1233.6 146.29C1233.18 147.971 1233.18 149.653 1233.18 152.175ZM1238.22 172.353C1243.68 171.092 1249.14 169.41 1255.02 168.149C1257.12 176.557 1259.22 184.964 1261.74 193.792C1255.86 195.473 1250.4 197.155 1244.94 198.836C1242.84 190.009 1240.74 181.181 1238.22 172.353ZM1253.34 208.505C1263.84 210.187 1274.34 211.868 1285.26 213.55C1284.42 219.435 1283.58 224.9 1282.32 231.205C1271.4 229.524 1261.32 227.842 1250.4 226.161C1251.24 220.275 1252.08 214.811 1253.34 208.505ZM1285.26 261.472C1281.06 261.472 1277.7 258.109 1277.7 253.905C1277.7 249.702 1281.06 246.339 1285.26 246.339C1289.46 246.339 1292.82 249.702 1292.82 253.905C1292.82 258.109 1289.46 261.472 1285.26 261.472ZM1288.62 189.168L1292.4 196.735L1284 195.053L1277.7 201.779L1276.44 192.951L1268.88 189.168L1276.86 185.385L1278.12 176.977L1284 183.283L1292.4 182.022L1288.62 189.168Z" fill="black"/>
</g>
<defs>
<clipPath id="clip0_3_61">
<rect width="58" height="59" fill="white" transform="translate(261 166)"/>
</clipPath>
<clipPath id="clip1_3_61">
<rect width="68" height="60" fill="white" transform="translate(163 165)"/>
</clipPath>
<clipPath id="clip2_3_61">
<rect width="336" height="293" fill="white" transform="translate(969)"/>
</clipPath>
</defs>
</svg>
