<svg width="292" height="63" viewBox="0 0 292 63" fill="none" xmlns="http://www.w3.org/2000/svg">
<path d="M42.5573 44.9504L36.8284 35.0145H47.9416L56.5564 50.0269C60.3039 44.8202 62.5437 38.4421 62.5437 31.5C62.5437 14.1012 48.5446 0 31.2719 0C13.9991 0 0 14.1012 0 31.5C0 38.4421 2.23986 44.8202 5.98731 50.0269L31.2719 5.90083L46.3478 32.2376H35.2778L31.1426 25.0351L25.4138 35.0145H33.684L39.3698 44.9504H19.728L12.8361 56.969C18.005 60.7872 24.38 63 31.2719 63C38.0776 63 44.3664 60.7872 49.4923 57.0992L42.5573 44.9504Z" fill="white"/>
<path d="M97.3477 42.8678H83.9947L80.5057 50.5041H75.423L90.8866 17.095L105.79 50.5041H100.621L97.3477 42.8678ZM95.4094 38.3988L90.7574 27.7252L85.89 38.3988H95.4094Z" fill="white"/>
<path d="M108.806 30.6322H113.371V32.4111C114.19 31.5434 114.965 30.9359 115.611 30.5888C116.257 30.2417 117.033 30.0682 117.937 30.0682C119.143 30.0682 120.392 30.4587 121.685 31.2397L119.617 35.4483C118.756 34.8409 117.894 34.4938 117.076 34.4938C114.577 34.4938 113.371 36.4029 113.371 40.1777V50.4607H108.806V30.6322Z" fill="white"/>
<path d="M124.226 22.3884C124.226 21.6074 124.528 20.9132 125.088 20.3058C125.648 19.7417 126.38 19.438 127.155 19.438C127.974 19.438 128.663 19.7417 129.266 20.3058C129.826 20.8698 130.127 21.5641 130.127 22.3884C130.127 23.2128 129.826 23.907 129.266 24.5145C128.706 25.0785 128.017 25.3822 127.198 25.3822C126.38 25.3822 125.691 25.0785 125.088 24.5145C124.528 23.9504 124.226 23.2562 124.226 22.3884ZM129.481 30.6322V50.4607H124.915V30.6322H129.481Z" fill="white"/>
<path d="M137.708 30.6322L142.791 41.7831L147.874 30.6322H153L142.748 51.8492L132.582 30.6322H137.708Z" fill="white"/>
<path d="M169.842 30.6322H174.451V50.4607H169.885V48.3781C167.989 50.157 166.008 51.0248 163.854 51.0248C161.141 51.0248 158.901 50.0268 157.092 48.031C155.326 45.9917 154.421 43.4752 154.421 40.438C154.421 37.4442 155.326 34.9711 157.092 33.0186C158.858 31.0227 161.054 30.0248 163.725 30.0248C166.008 30.0248 168.076 30.9793 169.885 32.8884V30.6322H169.842ZM159.073 40.5248C159.073 42.4339 159.59 43.9525 160.581 45.1673C161.614 46.3822 162.907 46.9897 164.5 46.9897C166.18 46.9897 167.559 46.4256 168.592 45.2541C169.626 44.0392 170.143 42.5206 170.143 40.6549C170.143 38.7892 169.626 37.2706 168.592 36.0558C167.559 34.8843 166.223 34.2768 164.543 34.2768C162.993 34.2768 161.657 34.8843 160.624 36.0558C159.59 37.2273 159.073 38.7459 159.073 40.5248Z" fill="white"/>
<path d="M187.373 19.0475L195.514 40.0909L203.999 17.5289L212.14 40.0909L220.755 19.0475H225.881L211.925 52.5L203.913 30.1984L195.514 52.5L182.247 19.0475H187.373V19.0475Z" fill="white"/>
<path d="M222.349 40.438C222.349 37.5744 223.383 35.1446 225.407 33.1054C227.432 31.0661 229.93 30.1116 232.859 30.1116C235.788 30.1116 238.287 31.1095 240.354 33.1488C242.379 35.188 243.369 37.6612 243.369 40.6116C243.369 43.6054 242.336 46.0785 240.311 48.0744C238.243 50.0703 235.745 51.0682 232.773 51.0682C229.801 51.0682 227.346 50.0703 225.364 48.031C223.383 45.9917 222.349 43.4752 222.349 40.438ZM227.001 40.5248C227.001 42.5207 227.518 44.0826 228.595 45.2107C229.672 46.3822 231.093 46.9463 232.859 46.9463C234.625 46.9463 236.047 46.3822 237.124 45.2107C238.2 44.0393 238.717 42.5207 238.717 40.5682C238.717 38.6591 238.2 37.0971 237.124 35.9256C236.047 34.7541 234.625 34.1901 232.859 34.1901C231.136 34.1901 229.715 34.7541 228.638 35.9256C227.561 37.1405 227.001 38.6591 227.001 40.5248Z" fill="white"/>
<path d="M247.332 30.6322H251.898V32.4111C252.716 31.5434 253.492 30.9359 254.138 30.5888C254.784 30.2417 255.559 30.0682 256.464 30.0682C257.67 30.0682 258.919 30.4587 260.211 31.2397L258.144 35.4483C257.282 34.8409 256.421 34.4938 255.602 34.4938C253.104 34.4938 251.898 36.4029 251.898 40.1777V50.4607H247.332V30.6322V30.6322Z" fill="white"/>
<path d="M268.008 16.0971V50.5041H263.442V16.0971H268.008Z" fill="white"/>
<path d="M287.434 16.0971H292V50.5041H287.434V48.4215C285.625 50.2004 283.601 51.0682 281.361 51.0682C278.647 51.0682 276.407 50.0703 274.641 48.0744C272.875 46.0351 271.971 43.5186 271.971 40.4814C271.971 37.531 272.875 35.0579 274.641 33.062C276.407 31.0661 278.604 30.0682 281.275 30.0682C283.601 30.0682 285.625 31.0227 287.477 32.9318V16.0971H287.434ZM276.623 40.5248C276.623 42.4339 277.139 43.9525 278.13 45.1674C279.164 46.3822 280.456 46.9897 282.05 46.9897C283.73 46.9897 285.108 46.4256 286.142 45.2541C287.176 44.0393 287.693 42.5207 287.693 40.655C287.693 38.7893 287.176 37.2707 286.142 36.0558C285.108 34.8843 283.773 34.2769 282.093 34.2769C280.542 34.2769 279.207 34.8843 278.173 36.0558C277.139 37.2273 276.623 38.7459 276.623 40.5248Z" fill="white"/>
<circle cx="184" cy="48" r="3" fill="white"/>
</svg>
