<svg width="228" height="74" viewBox="0 0 228 74" fill="none" xmlns="http://www.w3.org/2000/svg">
<path d="M228 63.9989C228 69.5214 223.488 74 217.923 74H10.0788C4.51337 74 0 69.5218 0 63.9989V10.0002C0 4.47819 4.51337 0 10.0788 0H217.923C223.488 0 228 4.47819 228 10.0002L228 63.9989Z" fill="black"/>
<path d="M49.4106 32.5729L39.1299 26.6838C39.1299 26.6838 20.4007 15.9534 19.2996 15.3227C18.1986 14.692 17.1016 15.0741 17.1016 16.3922C17.1016 18.5881 17.1016 39.3028 17.1016 39.3028C17.1016 39.3028 17.1016 61.6893 17.1016 62.6783C17.1016 63.6663 17.8857 64.0923 18.8423 63.5447C19.7984 62.9963 39.1299 51.9218 39.1299 51.9218L49.4102 46.0331C49.4102 46.0331 58.1329 41.0366 59.2923 40.3727C60.4518 39.7079 60.3403 38.7968 59.3619 38.274C58.3839 37.7508 49.4106 32.5729 49.4106 32.5729Z" fill="white"/>
<path d="M49.4112 32.5729L39.1305 26.6838L17.1025 14.0643V14.2466L42.5704 39.3032L49.4112 32.5729Z" fill="white" stroke="black" stroke-miterlimit="10"/>
<path d="M17.1016 64.3594V64.5416L39.1295 51.9217L49.4097 46.0326L42.5695 39.3032L17.1016 64.3594Z" fill="white" stroke="black" stroke-miterlimit="10"/>
<path d="M49.411 32.5729L42.5703 39.3032L49.4106 46.0327L61.1596 39.3028L49.411 32.5729Z" fill="white" stroke="black" stroke-miterlimit="10"/>
<path d="M177.44 49.0991C176.484 49.0991 175.611 48.924 174.821 48.5741C174.03 48.2238 173.366 47.6851 172.83 46.9589H172.669C172.776 47.8098 172.83 48.6166 172.83 49.3786V55.3757H170.606V34.2594H172.415L172.723 36.2541H172.83C173.402 35.4558 174.068 34.8799 174.827 34.5256C175.587 34.1709 176.458 33.9936 177.44 33.9936C179.388 33.9936 180.892 34.6544 181.95 35.975C183.009 37.2957 183.539 39.1489 183.539 41.5329C183.539 43.9265 183 45.7855 181.924 47.1119C180.847 48.437 179.353 49.0991 177.44 49.0991ZM177.119 35.8684C175.618 35.8684 174.532 36.2811 173.862 37.1051C173.192 37.9295 172.848 39.2418 172.83 41.0415V41.5329C172.83 43.5811 173.174 45.046 173.862 45.9283C174.551 46.8103 175.654 47.2508 177.172 47.2508C178.442 47.2508 179.436 46.7417 180.155 45.7222C180.874 44.7032 181.233 43.298 181.233 41.5063C181.233 39.6894 180.874 38.2948 180.155 37.3245C179.436 36.3532 178.423 35.8684 177.119 35.8684Z" fill="white"/>
<path d="M188.689 48.8329H186.465V28.1425H188.689V48.8329Z" fill="white"/>
<path d="M201.479 48.8328L201.037 46.7585H200.93C200.197 47.6722 199.467 48.291 198.738 48.6134C198.011 48.9376 197.101 49.0991 196.012 49.0991C194.555 49.0991 193.414 48.7267 192.587 47.9823C191.76 47.2375 191.348 46.1791 191.348 44.8044C191.348 41.8619 193.72 40.3192 198.464 40.1768L200.957 40.0967V39.1927C200.957 38.0489 200.709 37.2041 200.213 36.6597C199.718 36.1139 198.923 35.8414 197.834 35.8414C196.61 35.8414 195.225 36.2138 193.68 36.9582L192.996 35.2695C193.72 34.8794 194.513 34.5738 195.376 34.3522C196.238 34.1306 197.102 34.0196 197.969 34.0196C199.72 34.0196 201.017 34.4049 201.862 35.1762C202.706 35.9476 203.128 37.1842 203.128 38.8866V48.8324H201.479V48.8328ZM196.454 47.2777C197.838 47.2777 198.926 46.9009 199.717 46.1477C200.507 45.3944 200.903 44.3391 200.903 42.9822V41.6659L198.677 41.7584C196.909 41.8216 195.634 42.0932 194.851 42.5775C194.07 43.0605 193.679 43.8119 193.679 44.8314C193.679 45.6289 193.922 46.2366 194.41 46.6523C194.897 47.0694 195.578 47.2777 196.454 47.2777Z" fill="white"/>
<path d="M204.42 34.2594H206.805L210.021 42.5704C210.727 44.4679 211.165 45.8372 211.336 46.6797H211.443C211.559 46.2268 211.803 45.4542 212.173 44.3582C212.544 43.2631 213.757 39.8977 215.811 34.2594H218.198L211.885 50.8545C211.26 52.4945 210.529 53.6582 209.693 54.3464C208.858 55.0328 207.832 55.3756 206.618 55.3756C205.939 55.3756 205.269 55.3004 204.607 55.15V53.3818C205.098 53.4879 205.648 53.5414 206.256 53.5414C207.784 53.5414 208.873 52.6905 209.526 50.9881L210.343 48.9138L204.42 34.2594Z" fill="white"/>
<path d="M136.23 35.6136C136.936 36.1935 138.41 37.4115 138.41 39.7296C138.41 41.9839 137.12 43.053 135.83 44.0574C135.43 44.4532 134.969 44.8814 134.969 45.5528C134.969 46.222 135.43 46.5882 135.769 46.8628L136.875 47.7147C138.227 48.843 139.454 49.8801 139.454 51.9841C139.454 54.8493 136.659 57.7441 131.375 57.7441C126.92 57.7441 124.771 55.6414 124.771 53.3844C124.771 52.2875 125.321 50.7338 127.136 49.6656C129.04 48.5073 131.622 48.3565 133.004 48.2627C132.572 47.7147 132.082 47.1353 132.082 46.1919C132.082 45.6744 132.236 45.3692 132.39 45.0017C132.05 45.0326 131.713 45.0632 131.405 45.0632C128.15 45.0632 126.306 42.6549 126.306 40.2785C126.306 38.876 126.952 37.3204 128.272 36.1939C130.023 34.7613 132.112 34.5168 133.773 34.5168H140.1L138.134 35.6141H136.23V35.6136ZM134.048 49.1486C133.802 49.1167 133.648 49.1167 133.342 49.1167C133.066 49.1167 131.404 49.1791 130.116 49.6068C129.44 49.8487 127.473 50.5803 127.473 52.7457C127.473 54.909 129.594 56.4658 132.882 56.4658C135.829 56.4658 137.398 55.0607 137.398 53.1725C137.398 51.6148 136.384 50.7952 134.048 49.1486ZM134.939 43.3559C135.645 42.654 135.706 41.6796 135.706 41.1303C135.706 38.9361 134.385 35.5221 131.836 35.5221C131.036 35.5221 130.177 35.9179 129.685 36.5283C129.164 37.1683 129.008 37.9905 129.008 38.784C129.008 40.826 130.207 44.21 132.85 44.21C133.618 44.21 134.446 43.8442 134.939 43.3559Z" fill="white"/>
<path d="M116.889 48.6607C112.013 48.6607 109.405 44.8867 109.405 41.4775C109.405 37.4903 112.687 34.0833 117.351 34.0833C121.857 34.0833 124.679 37.5818 124.679 41.2652C124.68 44.8548 121.89 48.6607 116.889 48.6607ZM120.722 46.1958C121.46 45.221 121.644 44.0043 121.644 42.8163C121.644 40.1374 120.355 35.0254 116.552 35.0254C115.54 35.0254 114.528 35.4217 113.792 36.0621C112.596 37.1258 112.38 38.4655 112.38 39.7756C112.38 42.7862 113.883 47.7456 117.595 47.7456C118.791 47.7456 120.019 47.1684 120.722 46.1958Z" fill="white"/>
<path d="M100.264 48.6607C95.3866 48.6607 92.7793 44.8867 92.7793 41.4775C92.7793 37.4903 96.0619 34.0833 100.725 34.0833C105.233 34.0833 108.054 37.5818 108.054 41.2652C108.054 44.8548 105.264 48.6607 100.264 48.6607ZM104.098 46.1958C104.834 45.221 105.019 44.0043 105.019 42.8163C105.019 40.1374 103.73 35.0254 99.9258 35.0254C98.9144 35.0254 97.9016 35.4217 97.1661 36.0621C95.9696 37.1258 95.7552 38.4655 95.7552 39.7756C95.7552 42.7862 97.2575 47.7456 100.97 47.7456C102.167 47.7456 103.393 47.1684 104.098 46.1958Z" fill="white"/>
<path d="M90.436 48.1835L86.026 49.1932C84.2367 49.4692 82.6337 49.712 80.9385 49.712C72.4262 49.712 69.1895 43.5005 69.1895 38.6353C69.1895 32.7002 73.7835 27.1941 81.6481 27.1941C83.314 27.1941 84.9161 27.4383 86.3652 27.8364C88.6783 28.479 89.7571 29.2738 90.436 29.7333L87.8755 32.1504L86.7967 32.3941L87.5675 31.1699C86.5195 30.161 84.6063 28.295 80.9684 28.295C76.0957 28.295 72.4253 31.9682 72.4253 37.3221C72.4253 43.0728 76.6199 48.4886 83.3412 48.4886C85.3168 48.4886 86.3322 48.0915 87.2581 47.7235V42.7986L82.6025 43.0432L85.0685 41.726H91.6065L90.8055 42.4907C90.588 42.6752 90.5581 42.7371 90.4966 42.9795C90.4645 43.2555 90.4355 44.1436 90.4355 44.4492V48.1835H90.436Z" fill="white"/>
<path d="M145.976 47.3024C144.958 47.2104 144.745 47.0278 144.745 45.8332V45.4961V28.5157C144.751 28.4498 144.755 28.3822 144.762 28.3185C144.886 27.2481 145.194 27.0646 146.151 26.513H141.739L139.426 27.6148H141.783V27.6285L141.782 27.6174V45.4966V46.5072C141.782 47.118 141.66 47.2109 140.95 48.1278H146.409L147.55 47.4564C147.027 47.3931 146.501 47.3635 145.976 47.3024Z" fill="white"/>
<path d="M158.525 47.5838C158.19 47.7664 157.853 47.98 157.517 48.1309C156.505 48.5864 155.464 48.7085 154.543 48.7085C153.566 48.7085 152.033 48.6457 150.47 47.5227C148.297 46.0021 147.348 43.3891 147.348 41.1108C147.348 36.4018 151.206 34.0926 154.361 34.0926C155.464 34.0926 156.598 34.3655 157.517 34.944C159.047 35.9449 159.445 37.2514 159.658 37.9507L152.463 40.8384L150.104 41.0206C150.869 44.8796 153.502 47.1264 156.413 47.1264C157.974 47.1264 159.108 46.5806 160.149 46.0649L158.525 47.5838ZM155.647 38.5274C156.228 38.3156 156.534 38.1325 156.534 37.7074C156.534 36.4929 155.157 35.0944 153.502 35.0944C152.276 35.0944 149.98 36.0369 149.98 39.3178C149.98 39.8344 150.042 40.3811 150.074 40.9299L155.647 38.5274Z" fill="white"/>
<path d="M161.481 34.3005V36.3054H161.235V34.3005H160.566V34.0926H162.149V34.3005H161.481Z" fill="white"/>
<path d="M164.236 36.3054V34.2819H164.225L163.602 36.3054H163.41L162.782 34.2819H162.775V36.3054H162.552V34.0926H162.934L163.502 35.8812H163.51L164.069 34.0926H164.457V36.3054H164.236Z" fill="white"/>
<path d="M75.3134 21.2365H73.7809C73.7809 21.0273 73.6356 20.4351 73.3449 19.4594H71.1326C70.8326 20.4192 70.6824 21.0114 70.6824 21.2365H69.2412C69.2412 21.1131 69.6139 20.0994 70.3592 18.1958C71.1045 16.2922 71.4772 15.2435 71.4772 15.0507H73.2874C73.2874 15.2311 73.6249 16.2643 74.3002 18.1507C74.976 20.0366 75.3134 21.0654 75.3134 21.2365ZM73.1011 18.5518C72.555 16.9176 72.2822 16.0339 72.2822 15.9007H72.2056C72.2056 16.0241 71.9229 16.9078 71.3581 18.5518H73.1011Z" fill="white"/>
<path d="M81.4885 21.2365H80.3059C80.3059 21.1065 79.8668 20.4209 78.9891 19.1794C78.0699 17.8711 77.5461 16.9768 77.4186 16.4952H77.342C77.4218 17.1887 77.4619 17.8159 77.4619 18.3767C77.4619 19.1586 77.4842 20.1127 77.5287 21.237H76.3506C76.3983 20.2551 76.4224 19.1768 76.4224 18.0012C76.4224 16.845 76.3983 15.8614 76.3506 15.0507H77.7726C77.7726 15.2187 78.1666 15.8888 78.9552 17.0604C79.7946 18.305 80.2769 19.1494 80.4013 19.593H80.473C80.3963 18.8866 80.358 18.2533 80.358 17.6925C80.358 16.8344 80.3357 15.9534 80.2911 15.0507H81.4885C81.4434 15.8362 81.4216 16.8198 81.4216 18.0012C81.4212 19.1918 81.4434 20.2701 81.4885 21.2365Z" fill="white"/>
<path d="M88.4287 17.9295C88.4287 18.8291 88.1381 19.6146 87.5573 20.286C86.976 20.9578 86.162 21.2931 85.1149 21.2931C84.6424 21.2931 83.9911 21.2741 83.1611 21.236C83.2026 20.2794 83.2235 19.2006 83.2235 18.0002C83.2235 16.8476 83.2026 15.864 83.1611 15.0497H83.9992C84.1365 15.0497 84.3406 15.0449 84.6121 15.0356C84.8831 15.0263 85.0605 15.0214 85.1435 15.0214C86.2958 15.0214 87.1311 15.3067 87.6504 15.8768C88.1693 16.4474 88.4287 17.1311 88.4287 17.9295ZM87.1218 18.1338C87.1218 17.5257 86.943 17.0135 86.5855 16.5964C86.228 16.1802 85.6819 15.9719 84.9478 15.9719C84.8105 15.9719 84.6224 15.9861 84.3825 16.0148C84.4142 16.6486 84.4302 17.3103 84.4302 18.0007C84.4302 18.7579 84.4463 19.5085 84.4779 20.2528C84.6852 20.294 84.8929 20.3148 85.1002 20.3148C85.7862 20.3148 86.2949 20.1033 86.6252 19.6801C86.9564 19.2572 87.1218 18.742 87.1218 18.1338Z" fill="white"/>
<path d="M94.8278 21.2365H93.4102C93.0398 20.1153 92.7558 19.4231 92.5579 19.1604C92.36 18.8972 92.0408 18.7659 91.6004 18.7659C91.415 18.7659 91.238 18.7676 91.0691 18.7707C91.0691 19.585 91.0833 20.4068 91.1123 21.2365H89.7812C89.8227 20.2798 89.8437 19.2011 89.8437 18.0007C89.8437 16.8481 89.8227 15.8644 89.7812 15.0502H90.6095C90.7053 15.0502 90.9055 15.0453 91.2104 15.036C91.5153 15.0267 91.797 15.0219 92.0555 15.0219C93.5208 15.0219 94.2536 15.519 94.2536 16.5137C94.2536 17.3023 93.835 17.8517 92.9988 18.1626V18.2338C93.3211 18.3222 93.6037 18.5721 93.8462 18.9817C94.0887 19.3921 94.4159 20.1436 94.8278 21.2365ZM93.0322 16.8653C93.0322 16.2351 92.6234 15.9197 91.8064 15.9197C91.5064 15.9197 91.2411 15.9418 91.0116 15.9861C91.0468 16.477 91.0642 17.117 91.0642 17.9056C91.2398 17.9122 91.3882 17.9149 91.5095 17.9149C92.5245 17.9153 93.0322 17.5655 93.0322 16.8653Z" fill="white"/>
<path d="M101.692 18.0295C101.692 19.0017 101.392 19.8079 100.792 20.4479C100.192 21.0875 99.4494 21.4077 98.5655 21.4077C97.7225 21.4077 97.0169 21.114 96.449 20.5262C95.8806 19.9389 95.5967 19.1918 95.5967 18.2865C95.5967 17.3143 95.8967 16.5076 96.4971 15.868C97.0971 15.2285 97.8393 14.9083 98.7237 14.9083C99.5667 14.9083 100.272 15.2011 100.84 15.7871C101.408 16.3731 101.692 17.1201 101.692 18.0295ZM100.37 18.167C100.37 17.5049 100.2 16.968 99.8582 16.5562C99.5163 16.1445 99.095 15.9388 98.594 15.9388C98.1277 15.9388 97.7319 16.1462 97.4065 16.5611C97.0811 16.976 96.9179 17.5001 96.9179 18.1339C96.9179 18.7924 97.0896 19.3285 97.4328 19.742C97.776 20.1556 98.1964 20.3621 98.6948 20.3621C99.1606 20.3621 99.5569 20.1538 99.8823 19.7372C100.208 19.321 100.37 18.7973 100.37 18.167Z" fill="white"/>
<path d="M104.4 21.2365H103.045C103.086 20.2546 103.107 19.1763 103.107 18.0007C103.107 16.8446 103.086 15.8609 103.045 15.0502H104.4C104.359 15.8485 104.338 16.8318 104.338 18.0007C104.338 19.1949 104.359 20.2737 104.4 21.2365Z" fill="white"/>
<path d="M111.34 17.9295C111.34 18.8291 111.049 19.6146 110.468 20.286C109.887 20.9578 109.073 21.2931 108.026 21.2931C107.554 21.2931 106.902 21.2741 106.072 21.236C106.114 20.2794 106.135 19.2006 106.135 18.0002C106.135 16.8476 106.114 15.864 106.072 15.0497H106.91C107.048 15.0497 107.252 15.0449 107.523 15.0356C107.794 15.0263 107.972 15.0214 108.055 15.0214C109.207 15.0214 110.043 15.3067 110.562 15.8768C111.08 16.4474 111.34 17.1311 111.34 17.9295ZM110.033 18.1338C110.033 17.5257 109.854 17.0135 109.497 16.5964C109.139 16.1802 108.593 15.9719 107.859 15.9719C107.722 15.9719 107.533 15.9861 107.294 16.0148C107.325 16.6486 107.341 17.3103 107.341 18.0007C107.341 18.7579 107.357 19.5085 107.389 20.2528C107.596 20.294 107.804 20.3148 108.011 20.3148C108.698 20.3148 109.206 20.1033 109.536 19.6801C109.868 19.2572 110.033 18.742 110.033 18.1338Z" fill="white"/>
<path d="M120.548 21.2365H119.015C119.015 21.0273 118.87 20.4351 118.579 19.4594H116.367C116.067 20.4192 115.916 21.0114 115.916 21.2365H114.476C114.476 21.1131 114.848 20.0994 115.594 18.1958C116.339 16.2922 116.712 15.2435 116.712 15.0507H118.522C118.522 15.2311 118.86 16.2643 119.535 18.1507C120.21 20.0366 120.548 21.0654 120.548 21.2365ZM118.335 18.5518C117.789 16.9176 117.516 16.0339 117.516 15.9007H117.439C117.439 16.0241 117.157 16.9078 116.593 18.5518H118.335Z" fill="white"/>
<path d="M126.133 16.6703C126.133 17.4275 125.85 17.9866 125.283 18.3475C124.716 18.7084 124.021 18.8893 123.198 18.8893C123.047 18.8893 122.941 18.8862 122.877 18.88C122.877 19.4757 122.894 20.2608 122.929 21.2365H121.584C121.625 20.3214 121.646 19.2427 121.646 18.0007C121.646 16.8605 121.625 15.8768 121.584 15.0502H122.417C122.535 15.0502 122.762 15.0453 123.097 15.036C123.432 15.0267 123.722 15.0219 123.968 15.0219C124.575 15.0219 125.087 15.1581 125.505 15.4306C125.924 15.703 126.133 16.1161 126.133 16.6703ZM124.898 16.9317C124.898 16.2541 124.444 15.9149 123.538 15.9149C123.311 15.9149 123.072 15.9387 122.82 15.9861C122.855 16.5849 122.872 17.2625 122.872 18.0197C122.952 18.0264 123.045 18.029 123.15 18.029C124.315 18.0295 124.898 17.6637 124.898 16.9317Z" fill="white"/>
<path d="M131.876 16.6703C131.876 17.4275 131.593 17.9866 131.027 18.3475C130.46 18.7084 129.765 18.8893 128.941 18.8893C128.791 18.8893 128.684 18.8862 128.62 18.88C128.62 19.4757 128.637 20.2608 128.672 21.2365H127.327C127.369 20.3214 127.39 19.2427 127.39 18.0007C127.39 16.8605 127.369 15.8768 127.327 15.0502H128.16C128.278 15.0502 128.505 15.0453 128.84 15.036C129.175 15.0267 129.465 15.0219 129.712 15.0219C130.318 15.0219 130.83 15.1581 131.249 15.4306C131.667 15.703 131.876 16.1161 131.876 16.6703ZM130.641 16.9317C130.641 16.2541 130.188 15.9149 129.281 15.9149C129.054 15.9149 128.815 15.9387 128.563 15.9861C128.598 16.5849 128.615 17.2625 128.615 18.0197C128.695 18.0264 128.788 18.029 128.893 18.029C130.058 18.0295 130.641 17.6637 130.641 16.9317Z" fill="white"/>
<path d="M141.267 18.0295C141.267 19.0017 140.967 19.8079 140.366 20.4479C139.766 21.0879 139.024 21.4077 138.14 21.4077C137.297 21.4077 136.591 21.114 136.023 20.5262C135.455 19.9389 135.171 19.1918 135.171 18.2865C135.171 17.3143 135.471 16.5076 136.071 15.868C136.672 15.2285 137.414 14.9083 138.298 14.9083C139.141 14.9083 139.847 15.2011 140.414 15.7871C140.982 16.3731 141.267 17.1201 141.267 18.0295ZM139.945 18.167C139.945 17.5049 139.774 16.968 139.432 16.5562C139.09 16.1445 138.669 15.9388 138.168 15.9388C137.702 15.9388 137.306 16.1462 136.981 16.5611C136.655 16.976 136.492 17.5001 136.492 18.1339C136.492 18.7924 136.664 19.3285 137.007 19.742C137.35 20.1556 137.771 20.3621 138.269 20.3621C138.735 20.3621 139.131 20.1538 139.456 19.7372C139.782 19.321 139.945 18.7973 139.945 18.167Z" fill="white"/>
<path d="M147.757 21.2365H146.574C146.574 21.1065 146.136 20.4209 145.258 19.1794C144.338 17.8711 143.815 16.9768 143.687 16.4952H143.611C143.69 17.1887 143.73 17.8159 143.73 18.3767C143.73 19.1586 143.753 20.1127 143.797 21.237H142.619C142.667 20.2551 142.691 19.1768 142.691 18.0012C142.691 16.845 142.667 15.8614 142.619 15.0507H144.041C144.041 15.2187 144.436 15.8888 145.224 17.0604C146.064 18.305 146.545 19.1494 146.67 19.593H146.742C146.665 18.8866 146.627 18.2533 146.627 17.6925C146.627 16.8344 146.604 15.9534 146.56 15.0507H147.757C147.712 15.8362 147.69 16.8198 147.69 18.0012C147.69 19.1918 147.712 20.2701 147.757 21.2365Z" fill="white"/>
</svg>
